<svg width="124" height="134" viewBox="0 0 124 134" fill="none" xmlns="http://www.w3.org/2000/svg">
<path fill-rule="evenodd" clip-rule="evenodd" d="M64.5681 58.1643C64.5681 55.8069 66.3501 54.9298 71.9435 54.9298C74.4761 54.9298 77.6846 55.2275 79.7874 55.6365V48.7053C77.8266 48.2677 74.6482 47.9715 72.1656 47.9715C62.4313 47.9715 57.9821 51.4235 57.9821 58.0827C57.9821 64.1439 61.0893 66.9163 69.7234 68.7104C73.9416 69.5802 75.1995 70.5043 75.1995 72.7332C75.1995 74.5544 73.9908 75.3697 71.2528 75.3697H60.0539L57.9328 78.8214L60.0539 82.3009H71.7214C77.9868 82.3009 81.7857 78.4954 81.7857 72.2166C81.7857 66.5359 78.6776 63.6818 70.5869 61.9968C65.926 61.0184 64.5681 60.1615 64.5681 58.1643ZM85.6581 65.4215C85.6581 75.7501 92.0224 82.3009 102.062 82.3009V75.2066C95.6729 75.2066 92.2689 71.8089 92.2689 65.3942C92.2689 58.5448 96.1416 54.9024 103.418 54.9024C104.701 54.9024 106.625 55.0656 107.488 55.2287V80.4523L110.77 82.5454L114.05 80.4523V49.249C112.126 48.6238 107.537 47.9988 104.775 47.9988C92.5648 47.9988 85.6581 54.3045 85.6581 65.4215ZM6.18164 65.4215C6.18164 75.5599 12.373 82.3009 21.6724 82.3009L23.8185 78.7402L21.6724 75.2066C16.0482 75.2066 12.7924 71.6189 12.7924 65.3942C12.7924 58.5448 16.665 54.9024 23.9418 54.9024C25.2244 54.9024 27.1483 55.0656 28.0118 55.2287V82.3009H34.5732V49.249C32.6491 48.6238 28.061 47.9988 25.2984 47.9988C13.0883 47.9988 6.18164 54.3045 6.18164 65.4215ZM51.0013 75.3697C49.3486 75.3697 48.3866 74.3639 48.3866 72.6244V41.6383L45.1059 39.5454L41.8252 41.6383V72.9507C41.8252 78.4954 45.2785 82.3009 50.286 82.3009H53.1226V75.3697H51.0013Z" fill="#041E49"/>
</svg>
