<svg width="134" height="134" viewBox="0 0 134 134" fill="none" xmlns="http://www.w3.org/2000/svg">
<g clip-path="url(#clip0_1_1487)">
<path d="M89.4415 55.7523L80.7555 72.6833C80.5703 73.0454 80.0317 73.0454 79.8465 72.6833L71.1605 55.7523C71.0763 55.5799 70.908 55.4764 70.7228 55.4764H66.5145C66.2283 55.4764 66.0432 55.7868 66.1778 56.0454L79.8633 82.2868C80.0485 82.6489 80.5535 82.6489 80.7555 82.2868L94.441 56.0454C94.5757 55.7868 94.3905 55.4764 94.1043 55.4764H89.896C89.694 55.4764 89.5257 55.5799 89.4415 55.7523Z" fill="#041E49"/>
<path d="M94.3736 78.3557L103.06 61.4247C103.245 61.0626 103.783 61.0626 103.969 61.4247L112.655 78.3557C112.739 78.5281 112.907 78.6316 113.092 78.6316H117.301C117.587 78.6316 117.772 78.3212 117.637 78.0626L103.952 51.8212C103.767 51.4592 103.262 51.4592 103.06 51.8212L89.3741 78.0626C89.2395 78.3212 89.4246 78.6316 89.7108 78.6316H93.9191C94.1043 78.6143 94.2895 78.5109 94.3736 78.3557Z" fill="#041E49"/>
<path d="M35.0025 67.9592C36.8205 67.0282 37.9483 65.011 37.9483 62.5454C37.9483 58.3213 34.7331 55.4592 30.205 55.4592H17.1928C16.9066 55.4592 16.6878 55.6834 16.6878 55.9765V82.0282C16.6878 82.3213 16.9066 82.5454 17.1928 82.5454H29.6495C35.8778 82.5454 39.1603 79.8041 39.1603 74.4247C39.1603 69.1834 35.0025 67.9592 35.0025 67.9592ZM21.5695 59.3903H29.296C32.1408 59.3903 33.5885 60.6316 33.5885 62.942C33.5885 65.2523 32.1408 66.4937 29.296 66.4937H21.5695C21.3001 66.4937 21.0645 66.2696 21.0645 65.9765V59.9075C21.0645 59.6144 21.2833 59.3903 21.5695 59.3903ZM29.397 78.6144H21.5695C21.2833 78.6144 21.0645 78.3903 21.0645 78.0972V70.9075C21.0645 70.6316 21.2833 70.3903 21.5695 70.3903H29.397C33.134 70.3903 34.8005 71.4765 34.8005 74.4937C34.7836 77.5454 33.1676 78.6144 29.397 78.6144Z" fill="#041E49"/>
<path d="M61.717 67.9592C63.535 67.0282 64.6628 65.011 64.6628 62.5454C64.6628 58.3213 61.4476 55.4592 56.9195 55.4592H43.8905C43.6043 55.4592 43.3855 55.6834 43.3855 55.9765V82.0282C43.3855 82.3213 43.6043 82.5454 43.8905 82.5454H56.3471C62.5755 82.5454 65.858 79.8041 65.858 74.4247C65.8748 69.1834 61.717 67.9592 61.717 67.9592ZM48.284 59.3903H56.0105C58.8553 59.3903 60.303 60.6316 60.303 62.942C60.303 65.2523 58.8553 66.4937 56.0105 66.4937H48.284C47.9978 66.4937 47.779 66.2696 47.779 65.9765V59.9075C47.779 59.6144 47.9978 59.3903 48.284 59.3903ZM56.0946 78.6144H48.2671C47.9978 78.6144 47.7621 78.3903 47.7621 78.0972V70.9075C47.7621 70.6316 47.981 70.3903 48.2671 70.3903H56.0946C59.8316 70.3903 61.4981 71.4765 61.4981 74.4937C61.4981 77.5454 59.8653 78.6144 56.0946 78.6144Z" fill="#041E49"/>
</g>
<defs>
<clipPath id="clip0_1_1487">
<rect width="101" height="31" fill="white" transform="translate(16.6878 51.5454)"/>
</clipPath>
</defs>
</svg>
