<svg width="134" height="133" viewBox="0 0 134 133" fill="none" xmlns="http://www.w3.org/2000/svg">
<mask id="mask0_1_1489" style="mask-type:luminance" maskUnits="userSpaceOnUse" x="14" y="54" width="105" height="24">
<path d="M14.508 77.4767H118.821V54.5453H14.508V77.4767Z" fill="white"/>
</mask>
<g mask="url(#mask0_1_1489)">
<path d="M21.7164 73.6896C23.1997 73.5749 24.2643 72.4268 24.2643 70.3365C24.2643 68.1416 23.0839 66.9846 21.5037 66.9846H18.8956V73.6896H21.7164ZM21.4758 63.9088C22.7208 63.9378 23.7376 62.8576 23.7398 61.0034C23.7442 58.8419 22.8133 58.2807 21.4847 58.1682L18.8956 58.2128V63.9378L21.4758 63.9088ZM28.7933 70.949C28.7477 74.1774 26.0628 76.8021 23.5427 76.8021H14.5069V54.9399L22.9625 54.9822C26.4637 55.0869 27.9637 57.4121 28.0984 60.2952C28.2365 63.2707 26.7588 64.7017 24.8578 65.3287C24.8578 65.3287 28.8679 65.6405 28.7933 70.949Z" fill="#041E49"/>
<path d="M35.8367 58.1323H31.6451V54.5442H35.8367V58.1323Z" fill="#041E49"/>
<path d="M35.8468 76.8197H31.6363V60.3495H35.8468V76.8197Z" fill="#041E49"/>
<path d="M43.2946 76.8197H39.0841V54.9417H43.2946V76.8197Z" fill="#041E49"/>
<path d="M80.5722 75.325C81.5098 76.6145 83.1379 77.3295 84.4642 77.3295C85.6702 77.3295 86.9542 76.6591 87.8518 75.5722C89.1714 73.9764 89.2393 71.4519 89.2393 68.5754C89.2393 65.3493 89.0255 63.0531 87.7282 61.4762C87.0288 60.6288 85.2872 59.9929 84.2972 59.9929C83.1557 59.9929 81.923 60.3704 81.051 61.3537C80.9074 61.5152 80.698 61.7568 80.5722 61.9406L80.5878 54.9416H76.7247H76.3371L76.2915 76.8194H76.4919H80.3405V76.6079V75.0778L80.5722 75.325ZM84.374 63.6867C85.0967 64.6355 85.0232 66.6311 85.0232 68.6478C85.0232 70.4463 85.109 72.2871 84.5132 73.2849C84.1079 73.9642 83.4119 74.119 82.8673 74.119C82.2682 74.119 81.5521 73.9519 81.129 73.1457C80.6 72.1423 80.433 70.3238 80.433 68.6478C80.433 66.7848 80.6813 64.8627 81.3138 63.8738C81.7081 63.2602 82.3517 63.1767 82.8673 63.1767C83.315 63.1767 84.0143 63.2146 84.374 63.6867Z" fill="#041E49"/>
<path d="M52.8003 63.1772C52.2847 63.1772 51.6399 63.2607 51.2468 63.8743C50.6131 64.8621 50.3659 66.7841 50.3659 68.6483C50.3659 70.3243 50.533 72.1428 51.0608 73.1462C51.4851 73.9513 52.2011 74.1194 52.8003 74.1194C53.3448 74.1194 54.0408 73.9635 54.4462 73.2854C55.0419 72.2876 54.9562 70.4457 54.9562 68.6483C54.9562 66.6316 55.0297 64.636 54.307 63.6872C53.9473 63.2139 53.2468 63.1772 52.8003 63.1772ZM50.2735 75.0783V76.6083V76.8199H46.4249H46.2244L46.2712 54.9421H46.6576H50.5207L50.5051 61.94C50.631 61.7573 50.8403 61.5157 50.984 61.3531C51.8559 60.3709 53.0887 59.9934 54.2301 59.9934C55.2201 59.9934 56.9618 60.6281 57.6611 61.4767C58.9596 63.0536 59.1723 65.3487 59.1723 68.5759C59.1723 71.4524 59.1044 73.9769 57.7847 75.5716C56.8872 76.6585 55.6032 77.33 54.3972 77.33C53.0709 77.33 51.4439 76.615 50.5051 75.3255L50.2735 75.0783Z" fill="#041E49"/>
<path d="M67.7315 62.8407C67.1958 62.8407 66.5254 62.9298 66.1167 63.5857C65.4575 64.6403 65.2002 66.6926 65.2002 68.6815C65.2002 70.4711 65.374 72.4132 65.9241 73.4845C66.364 74.3453 67.109 74.5246 67.7315 74.5246C68.2983 74.5246 69.0221 74.3587 69.4431 73.6337C70.0633 72.568 69.9743 70.6014 69.9743 68.6815C69.9743 66.5289 70.0511 64.3986 69.2994 63.3852C68.9252 62.8808 68.1969 62.8407 67.7315 62.8407ZM71.6736 60.8618C73.6503 62.3796 74.1469 65.3875 74.1469 68.618C74.1469 71.4978 73.7973 74.2874 72.1692 75.8843C71.0622 76.9712 69.3673 77.381 67.8785 77.381C66.2415 77.381 64.286 77.1126 63.1278 75.8208C61.6846 74.2139 61.2258 71.3029 61.2258 68.618C61.2258 65.6336 61.7737 62.6803 63.5042 61.0979C64.5788 60.1146 66.4709 59.8562 67.8785 59.8562C69.1001 59.8562 70.6903 60.1045 71.6736 60.8618Z" fill="#041E49"/>
<path d="M91.8471 72.7318V60.3251L91.8526 60.1336H96.0075V60.3741V71.5346C95.8293 73.5436 97.3282 73.812 97.6835 73.8376C99.8171 73.9924 100.002 72.1059 100.002 72.1059L100.136 70.5291L100.139 70.3286V60.177L104.283 60.1336V76.6104L100.253 76.498L100.296 74.5948C99.6768 75.9501 97.8539 77.1027 96.0732 77.1027C93.7424 77.1027 91.8526 75.4623 91.8526 73.4389C91.8526 73.0892 91.8393 72.5447 91.8526 72.509" fill="#041E49"/>
<path d="M118.192 63.215C117.574 61.4254 116.211 60.0067 113.661 59.8987C109.348 59.7138 106.696 61.1381 106.597 64.96C106.516 68.1126 110.009 69.7274 111.817 70.1093C113.071 70.3744 114.775 71.1405 114.775 72.361C114.775 73.5804 113.888 74.5114 112.607 74.5114C111.326 74.5114 110.306 73.5169 110.306 72.2964C110.306 72.0158 110.284 71.5436 110.284 71.5436H106.867H106.574C106.574 71.5436 106.076 77.223 111.748 77.35C117.397 77.4758 118.821 74.1027 118.809 72.4223C118.78 67.9668 116.089 67.8554 112.283 66.45L112.132 66.3988C111.234 66.2173 110.692 65.5669 110.692 64.6638C110.692 63.6248 111.584 62.7829 112.685 62.7829C113.785 62.7829 114.573 63.6426 114.573 64.6805L114.593 65.2596L118.343 65.2206C118.343 65.2206 118.356 63.6905 118.192 63.215Z" fill="#041E49"/>
</g>
</svg>
