<svg width="134" height="134" viewBox="0 0 134 134" fill="none" xmlns="http://www.w3.org/2000/svg">
<path d="M25.3384 54.6753C24.551 55.4971 23.9002 56.1775 23.6932 56.4157C23.3216 56.8331 22.7811 57.4244 22.8336 57.9325C22.8785 58.0937 23.0299 58.3127 23.2457 58.4237C23.5708 58.591 24.1226 58.468 24.6515 58.2603C25.4804 57.997 26.2754 57.7741 26.5836 58.5855C26.8355 59.2379 26.1459 60.4618 25.5121 61.8437C22.4305 68.2956 24.7979 72.7886 25.3104 73.5754C24.9056 73.1928 23.3386 71.6493 22.5168 70.2368C14.0186 54.4076 23.1353 43.4174 22.8003 43.3452C23.0959 43.5513 13.7416 53.4399 20.4372 69.6222C19.3476 69.0484 18.1472 68.502 16.879 67.9152C15.6114 67.3279 14.341 66.5907 13.2023 65.7603C10.8156 64.0047 8.79776 61.0704 9.51682 60.1552C9.90313 59.6461 10.3769 59.8935 10.8194 60.187C11.1593 60.388 11.527 60.547 11.7658 60.234C11.9844 59.9247 11.6511 59.3799 11.0577 58.4216C10.3916 57.2653 9.3458 55.4131 8.71198 52.9739C8.37157 51.6505 8.02788 48.7835 8.5792 48.1214C8.93217 47.6886 9.75396 47.9924 9.99001 48.1781C10.1818 48.3175 10.3534 48.5814 10.5124 48.7721C10.72 48.995 10.9271 49.2201 11.0697 49.3289C11.4997 49.6508 11.8647 49.6572 12.0598 49.3945C12.2554 49.1366 12.2554 48.5267 12.3002 47.7656C12.322 46.239 12.4073 44.0354 13.7744 42.1356C14.3535 41.3384 15.1267 41.1624 15.6452 41.4689C15.8337 41.5804 16.0523 41.8389 16.2659 42.0995C16.5058 42.4345 16.755 42.8547 17.2298 43.1393C17.7068 43.4234 17.992 43.1918 18.6089 42.217C18.887 41.7831 19.1345 41.3941 19.3056 41.0193C19.5334 40.5488 19.7164 40.0565 20.1465 39.3593C20.8519 38.2201 21.7338 37.5496 22.2895 37.8381C22.5206 37.9589 22.5217 38.1583 22.5758 38.3867C22.6288 38.6129 22.6463 38.89 22.9714 39.0642C23.3435 39.262 23.956 38.8435 24.7099 38.3577C25.5952 37.7371 26.647 36.9907 27.3409 37.3453C28.0266 37.7016 28.0747 38.7452 27.8517 39.172C27.6868 39.4942 27.4409 39.8462 27.1978 40.1887C26.972 40.4892 26.7863 40.7264 26.6977 40.887C26.442 41.3602 26.4858 41.734 26.8726 41.9301C27.013 42.0039 27.2606 41.9962 27.4808 42.0465C27.7748 42.059 28.0747 42.0809 28.3163 42.1984C28.6446 42.3726 29.1221 42.7492 28.65 43.6655C28.2343 44.4703 27.471 45.1008 26.6962 45.7199C26.0263 46.2582 25.3848 46.7384 25.0641 47.3148C24.8007 47.7908 24.8844 48.4513 25.5898 48.8153C25.887 48.9749 26.358 48.9475 26.8496 48.8612C27.3945 48.7961 27.8922 48.7011 28.2949 48.905C28.6468 49.0776 28.8698 49.3814 28.9036 49.8053C29.0375 50.2763 28.8451 50.7867 28.4927 51.2222C28.0337 51.8729 26.5492 53.4537 25.3384 54.6753ZM89.2118 94.8822L90.2746 87.238H90.7609L89.6953 94.8822H89.2118ZM28.1277 79.624L27.4885 84.2137L27.2458 85.424C27.2305 85.4978 27.1993 85.5551 27.1529 85.5879C27.1087 85.6207 27.0508 85.6398 26.9857 85.6398H26.8017L27.6447 79.6295L26.9825 79.5857C26.9081 79.5802 26.8682 79.542 26.8699 79.471L26.8955 79.2579H27.6938L27.7906 78.5941C27.8299 78.2963 27.9036 78.034 28.0091 77.8073C28.1157 77.5832 28.2452 77.3946 28.4003 77.2444C28.5539 77.0942 28.7282 76.9795 28.9249 76.903C29.1166 76.8291 29.3221 76.7909 29.5451 76.7909C29.6429 76.7909 29.7401 76.8018 29.8386 76.821C29.9363 76.84 30.0215 76.8674 30.1003 76.903L30.0428 77.1543C30.0368 77.1925 30.0117 77.2117 29.9625 77.2117C29.9243 77.2117 29.8702 77.2062 29.7991 77.1897C29.7309 77.1788 29.65 77.1707 29.5592 77.1707C29.4009 77.1707 29.2511 77.1953 29.1085 77.2499C28.9653 77.3018 28.838 77.3865 28.725 77.5012C28.6129 77.6133 28.5173 77.7608 28.4338 77.9438C28.3533 78.1241 28.2933 78.3482 28.2578 78.6105L28.1621 79.2579H29.6429L29.5838 79.624H28.1277ZM31.7038 83.9979C32.0099 83.9979 32.2885 83.9187 32.5404 83.7602C32.7945 83.599 33.0125 83.3887 33.1961 83.1237C33.3792 82.8559 33.5213 82.5554 33.6239 82.2139C33.7283 81.8724 33.7819 81.5201 33.7873 81.1593C33.7993 80.5992 33.6818 80.1677 33.4382 79.8617C33.1961 79.5557 32.8535 79.4054 32.4109 79.4054C32.2094 79.4054 32.0176 79.4409 31.8383 79.512C31.6574 79.583 31.4914 79.6842 31.3395 79.8152C31.1864 79.9436 31.0482 80.0967 30.9242 80.2742C30.7997 80.4518 30.6948 80.643 30.61 80.8561C30.5231 81.0638 30.457 81.2877 30.4079 81.5227C30.3592 81.7577 30.334 81.998 30.3276 82.2413C30.3188 82.7986 30.433 83.2329 30.6767 83.5362C30.917 83.8449 31.2592 83.9979 31.7038 83.9979ZM31.6553 84.394C31.3761 84.394 31.1219 84.3449 30.8941 84.2438C30.6673 84.1482 30.4735 84.0061 30.3127 83.8203C30.1543 83.6346 30.0324 83.4078 29.9472 83.1455C29.8642 82.8778 29.8237 82.5801 29.8314 82.2413C29.838 81.8177 29.9068 81.4107 30.0401 81.02C30.1734 80.6293 30.3586 80.2851 30.5936 79.9873C30.8286 79.6896 31.1045 79.4518 31.4225 79.2743C31.741 79.0995 32.0907 79.0092 32.4677 79.0092C32.7475 79.0092 33.0005 79.0611 33.2278 79.1596C33.4568 79.2606 33.6486 79.4027 33.8091 79.5857C33.9687 79.7688 34.0906 79.9955 34.1758 80.2606C34.26 80.5255 34.2987 80.8261 34.2916 81.1539C34.2861 81.5774 34.2135 81.9845 34.0785 82.3751C33.9458 82.763 33.7606 83.1073 33.5278 83.4078C33.2961 83.7083 33.0174 83.946 32.7 84.1236C32.3831 84.3039 32.0345 84.394 31.6553 84.394ZM35.1019 84.323L35.827 79.0776H36.0521C36.1762 79.0776 36.2352 79.1404 36.2335 79.2661L36.0532 80.8233C36.3019 80.2523 36.5821 79.8124 36.8936 79.5011C37.204 79.1923 37.5356 79.0367 37.881 79.0367C38.0246 79.0367 38.17 79.0666 38.3208 79.1267L38.2241 79.5939C38.0639 79.5338 37.9126 79.5065 37.7738 79.5065C37.399 79.5065 37.0575 79.6896 36.7515 80.0583C36.4456 80.4272 36.1795 80.9626 35.9538 81.6594L35.5915 84.323H35.1019ZM39.7496 79.094L39.2967 82.4216C39.2732 82.5855 39.2595 82.7384 39.2557 82.8778C39.2497 83.2357 39.3119 83.5089 39.4436 83.6947C39.5748 83.8832 39.7868 83.976 40.0764 83.976C40.2704 83.976 40.4648 83.9296 40.662 83.8285C40.8604 83.7329 41.0544 83.5908 41.243 83.4078C41.4319 83.222 41.6101 83.0035 41.7795 82.7439C41.9478 82.4872 42.0992 82.1975 42.2297 81.8752L42.6188 79.094H43.1116L42.3881 84.323H42.1559C42.0898 84.323 42.0407 84.3066 42.0134 84.2711C41.9817 84.2356 41.9696 84.1892 41.9696 84.129L42.1554 82.6429C42.0063 82.9188 41.8423 83.1674 41.6664 83.3832C41.4889 83.599 41.3041 83.7848 41.1097 83.9323C40.9162 84.0826 40.7167 84.1946 40.5124 84.2738C40.3086 84.3531 40.1042 84.394 39.9015 84.394C39.5125 84.394 39.224 84.2629 39.0333 84.0061C38.8442 83.7466 38.7541 83.3805 38.7607 82.9051L38.7667 82.8013L38.7852 82.6128L38.8322 82.2413L38.9158 81.5992L39.0546 80.5829L39.2557 79.094H39.7496ZM47.3412 83.976C47.5401 83.976 47.7379 83.9214 47.9336 83.8094C48.1303 83.6974 48.3188 83.5362 48.4963 83.334C48.6751 83.1291 48.846 82.8833 49.0056 82.5936C49.1685 82.3013 49.3132 81.9845 49.4405 81.632L49.7432 79.5065C49.5362 79.4355 49.3138 79.3999 49.0718 79.3999C48.8368 79.3999 48.6095 79.4382 48.3871 79.5174C48.1636 79.5967 47.9554 79.706 47.7599 79.8453C47.5621 79.9873 47.3796 80.1512 47.2151 80.3452C47.0473 80.5392 46.9026 80.7496 46.7791 80.979C46.6555 81.2085 46.5604 81.4517 46.491 81.7058C46.4211 81.9626 46.3856 82.2221 46.3796 82.4898C46.372 82.9598 46.4446 83.3231 46.5993 83.5854C46.7533 83.8477 47.002 83.976 47.3412 83.976ZM49.5569 84.323H49.3138C49.2476 84.323 49.2012 84.3094 49.1767 84.2766C49.1498 84.2465 49.1373 84.2083 49.1373 84.1618L49.3416 82.5171C49.2045 82.7958 49.0538 83.0526 48.8909 83.2794C48.7259 83.5116 48.5522 83.7083 48.3691 83.8722C48.186 84.0362 47.9936 84.1646 47.7926 84.2574C47.5899 84.3476 47.3844 84.3913 47.1692 84.3913C46.949 84.3913 46.7578 84.3503 46.5948 84.2629C46.431 84.1782 46.2961 84.0553 46.1884 83.8995C46.0813 83.7411 46.002 83.5499 45.9501 83.3258C45.8994 83.1018 45.8736 82.8477 45.8802 82.5663C45.8851 82.2631 45.9294 81.9653 46.0114 81.6729C46.0934 81.3806 46.2081 81.102 46.3551 80.8397C46.502 80.5748 46.6741 80.3343 46.8752 80.113C47.0757 79.8917 47.2942 79.7005 47.5336 79.5392C47.7723 79.3781 48.0291 79.2525 48.2986 79.1623C48.5702 79.0722 48.8515 79.0256 49.1367 79.0256C49.3471 79.0256 49.5428 79.0421 49.7242 79.0803C49.9066 79.1186 50.0842 79.1841 50.2602 79.2715L49.5569 84.323ZM51.2945 84.323L52.3556 76.6734H52.8446L51.7786 84.323H51.2945ZM54.9181 83.9897C55.1187 83.9897 55.3193 83.9323 55.5203 83.8231C55.7224 83.7111 55.9176 83.5553 56.1088 83.3504C56.3 83.1483 56.4803 82.9051 56.647 82.6182C56.8164 82.3313 56.9655 82.0172 57.0977 81.6703L57.3087 80.1567C57.1633 79.8835 56.9804 79.6896 56.758 79.5776C56.535 79.4655 56.3045 79.4108 56.0623 79.4108C55.8427 79.4108 55.6361 79.4546 55.4427 79.5447C55.2509 79.6321 55.0749 79.7551 54.9181 79.9081C54.757 80.0638 54.616 80.2414 54.4931 80.4464C54.3674 80.6485 54.2609 80.8643 54.1751 81.0911C54.0899 81.3206 54.0232 81.5554 53.974 81.7959C53.9265 82.039 53.8986 82.2713 53.8959 82.4926C53.8865 82.9652 53.9696 83.3313 54.1445 83.5936C54.3167 83.8558 54.5761 83.9897 54.9181 83.9897ZM56.9776 84.323C56.9108 84.323 56.8629 84.3094 56.8388 84.2766C56.8136 84.2465 56.8016 84.2083 56.8016 84.1618L57.0048 82.4926C56.8629 82.7794 56.7038 83.0363 56.5322 83.2712C56.3564 83.5034 56.1744 83.7029 55.9821 83.8695C55.7914 84.0362 55.5897 84.1646 55.3827 84.2574C55.1734 84.3476 54.963 84.3913 54.7478 84.3913C54.5215 84.3913 54.3221 84.3476 54.1527 84.2602C53.9822 84.1728 53.8412 84.0498 53.7292 83.8886C53.615 83.7274 53.5314 83.5335 53.4757 83.304C53.4199 83.0772 53.3954 82.8204 53.402 82.5363C53.4047 82.2713 53.4385 81.998 53.4998 81.7194C53.5615 81.4407 53.6462 81.1704 53.7538 80.9107C53.8621 80.6513 53.9915 80.4026 54.1445 80.1732C54.2975 79.9436 54.4712 79.7442 54.6624 79.5721C54.8548 79.3999 55.0631 79.2661 55.2892 79.1651C55.5154 79.0639 55.7564 79.0147 56.0132 79.0147C56.2945 79.0147 56.5547 79.0776 56.7918 79.2033C57.0268 79.3262 57.2197 79.512 57.3688 79.7633L57.8097 76.6734H58.2912L57.2175 84.323H56.9776ZM60.0073 79.094L59.5516 82.4216C59.5287 82.5855 59.5157 82.7384 59.5129 82.8778C59.5063 83.2357 59.5691 83.5089 59.7014 83.6947C59.8325 83.8832 60.0429 83.976 60.3358 83.976C60.5259 83.976 60.7204 83.9296 60.9205 83.8285C61.1166 83.7329 61.3106 83.5908 61.5007 83.4078C61.6892 83.222 61.8678 83.0035 62.0361 82.7439C62.2061 82.4872 62.3569 82.1975 62.4896 81.8752L62.8759 79.094H63.3683L62.6438 84.323H62.4131C62.3454 84.323 62.2984 84.3066 62.2694 84.2711C62.2399 84.2356 62.2273 84.1892 62.2273 84.129L62.4116 82.6429C62.2617 82.9188 62.1 83.1674 61.9225 83.3832C61.7466 83.599 61.5614 83.7848 61.3668 83.9323C61.1717 84.0826 60.9739 84.1946 60.7695 84.2738C60.5647 84.3531 60.3614 84.394 60.1592 84.394C59.7697 84.394 59.4796 84.2629 59.2905 84.0061C59.102 83.7466 59.0101 83.3805 59.0201 82.9051L59.0238 82.8013L59.043 82.6128L59.0894 82.2413L59.1758 81.5992L59.3107 80.5829L59.5129 79.094H60.0073ZM64.2572 84.323L64.9813 79.0776H65.2063C65.3266 79.0776 65.384 79.1404 65.3828 79.2661L65.2037 80.7823C65.3517 80.5037 65.5145 80.2578 65.6904 80.0393C65.8691 79.818 66.055 79.6321 66.2505 79.4819C66.4456 79.3289 66.6461 79.2115 66.851 79.1322C67.0548 79.0557 67.2597 79.0147 67.4662 79.0147C67.8559 79.0147 68.1449 79.1431 68.3361 79.3999C68.5284 79.6541 68.6202 80.0201 68.6104 80.4954L68.6055 80.6048C68.6038 80.6458 68.5984 80.7086 68.5886 80.7987L68.541 81.1676L68.4568 81.8123L68.3197 82.8341L68.1159 84.323H67.6247L68.0777 80.979C68.1011 80.8179 68.1137 80.6648 68.1165 80.5201C68.1242 80.1649 68.0607 79.8944 67.9302 79.7114C67.798 79.5229 67.5876 79.43 67.2964 79.43C67.1012 79.43 66.9018 79.4819 66.6997 79.5802C66.4981 79.6814 66.3035 79.8235 66.1112 80.0064C65.9221 80.1922 65.7418 80.4135 65.5724 80.6758C65.4026 80.9354 65.2528 81.2304 65.1206 81.5554L64.7491 84.323H64.2572ZM71.0276 83.9897C71.2271 83.9897 71.4266 83.9323 71.6287 83.8231C71.8309 83.7111 72.0276 83.5553 72.2188 83.3504C72.41 83.1483 72.5877 82.9051 72.7571 82.6182C72.9237 82.3313 73.0739 82.0172 73.2078 81.6703L73.4181 80.1567C73.2707 79.8835 73.0903 79.6896 72.8663 79.5776C72.645 79.4655 72.4128 79.4108 72.1724 79.4108C71.9511 79.4108 71.7435 79.4546 71.5495 79.5447C71.3583 79.6321 71.1834 79.7551 71.025 79.9081C70.8665 80.0638 70.7244 80.2414 70.6014 80.4464C70.4758 80.6485 70.3692 80.8643 70.2846 81.0911C70.1972 81.3206 70.1316 81.5554 70.0825 81.7959C70.0332 82.039 70.0086 82.2713 70.0032 82.4926C69.995 82.9652 70.0769 83.3313 70.2517 83.5936C70.4239 83.8558 70.6834 83.9897 71.0276 83.9897ZM73.0848 84.323C73.0193 84.323 72.9729 84.3094 72.9483 84.2766C72.921 84.2465 72.9073 84.2083 72.91 84.1618L73.1122 82.4926C72.9729 82.7794 72.8116 83.0363 72.6396 83.2712C72.4647 83.5034 72.2816 83.7029 72.0904 83.8695C71.8992 84.0362 71.6971 84.1646 71.4894 84.2574C71.2818 84.3476 71.0714 84.3913 70.8582 84.3913C70.6288 84.3913 70.4294 84.3476 70.26 84.2602C70.0906 84.1728 69.9513 84.0498 69.8366 83.8886C69.7245 83.7274 69.6398 83.5335 69.5852 83.304C69.5279 83.0772 69.5059 82.8204 69.5087 82.5363C69.5141 82.2713 69.5469 81.998 69.6098 81.7194C69.6698 81.4407 69.7546 81.1704 69.8612 80.9107C69.9704 80.6513 70.0988 80.4026 70.2545 80.1732C70.4075 79.9436 70.5796 79.7442 70.7708 79.5721C70.9648 79.3999 71.1725 79.2661 71.3993 79.1651C71.6232 79.0639 71.8637 79.0147 72.1205 79.0147C72.4019 79.0147 72.6642 79.0776 72.9019 79.2033C73.1367 79.3262 73.3281 79.512 73.4755 79.7633L73.9154 76.6734H74.399L73.3281 84.323H73.0848ZM76.7677 77.2908C76.7677 77.3536 76.7512 77.4111 76.7267 77.4657C76.7021 77.523 76.6665 77.5723 76.6255 77.6105C76.5818 77.6542 76.5327 77.6898 76.4808 77.7116C76.4234 77.7362 76.3687 77.7498 76.314 77.7498C76.254 77.7498 76.1965 77.7362 76.1474 77.7116C76.0928 77.6898 76.0463 77.6542 76.0081 77.6105C75.9671 77.5723 75.9371 77.523 75.9152 77.4657C75.8906 77.4111 75.8797 77.3536 75.8797 77.2908C75.8797 77.228 75.8934 77.1679 75.9207 77.1133C75.9453 77.0558 75.9809 77.0067 76.019 76.963C76.06 76.9193 76.1091 76.8838 76.1611 76.8592C76.2157 76.8346 76.2704 76.8236 76.3305 76.8236C76.3851 76.8236 76.4398 76.8346 76.4943 76.8592C76.549 76.8838 76.5955 76.9165 76.6365 76.9603C76.6774 77.0013 76.7102 77.0532 76.7348 77.1079C76.7594 77.1679 76.7677 77.228 76.7677 77.2908ZM76.3496 79.094L75.6201 84.323H75.1311L75.8633 79.094H76.3496ZM78.6991 83.976C78.8986 83.976 79.098 83.9214 79.2947 83.8094C79.4914 83.6974 79.6799 83.5362 79.8574 83.334C80.0351 83.1291 80.2071 82.8833 80.3656 82.5936C80.5269 82.3013 80.6717 81.9845 80.8027 81.632L81.1033 79.5065C80.8984 79.4355 80.6743 79.3999 80.4312 79.3999C80.199 79.3999 79.9695 79.4382 79.7482 79.5174C79.5242 79.5967 79.3139 79.706 79.1199 79.8453C78.9232 79.9873 78.7401 80.1512 78.5735 80.3452C78.4096 80.5392 78.2648 80.7496 78.139 80.979C78.0161 81.2085 77.9205 81.4517 77.8521 81.7058C77.7812 81.9626 77.7457 82.2221 77.7402 82.4898C77.732 82.9598 77.803 83.3231 77.9587 83.5854C78.1144 83.8477 78.3603 83.976 78.6991 83.976ZM80.9148 84.323H80.6743C80.6061 84.323 80.5623 84.3094 80.535 84.2766C80.5104 84.2465 80.4995 84.2083 80.4995 84.1618L80.7017 82.5171C80.5651 82.7958 80.412 83.0526 80.2481 83.2794C80.0842 83.5116 79.9121 83.7083 79.729 83.8722C79.5461 84.0362 79.3549 84.1646 79.1526 84.2574C78.9505 84.3476 78.7429 84.3913 78.5297 84.3913C78.3084 84.3913 78.1199 84.3503 77.9561 84.2629C77.7921 84.1782 77.6555 84.0553 77.5489 83.8995C77.4396 83.7411 77.3631 83.5499 77.3086 83.3258C77.2567 83.1018 77.2347 82.8477 77.2402 82.5663C77.2456 82.2631 77.2894 81.9653 77.3714 81.6729C77.4533 81.3806 77.568 81.102 77.7156 80.8397C77.8604 80.5748 78.0352 80.3343 78.2347 80.113C78.4342 79.8917 78.6555 79.7005 78.8931 79.5392C79.1336 79.3781 79.3876 79.2525 79.6581 79.1623C79.9313 79.0722 80.2099 79.0256 80.4968 79.0256C80.7072 79.0256 80.9011 79.0421 81.0842 79.0803C81.2645 79.1186 81.4448 79.1841 81.6224 79.2715L80.9148 84.323ZM27.3168 94.5434C27.5152 94.5434 27.7158 94.4888 27.9201 94.3795C28.1211 94.2702 28.3178 94.1118 28.5075 93.9096C28.6987 93.7074 28.8779 93.4615 29.0461 93.1747C29.2146 92.8906 29.3654 92.5764 29.4959 92.2267L29.7085 90.7159C29.562 90.4427 29.3789 90.2487 29.1571 90.1394C28.9337 90.0274 28.703 89.9701 28.461 89.9701C28.2392 89.9701 28.0337 90.0165 27.8425 90.1039C27.6474 90.1941 27.4715 90.3143 27.3152 90.4673C27.1557 90.623 27.0136 90.8006 26.8895 91.0055C26.7667 91.2076 26.6595 91.4235 26.5732 91.653C26.4874 91.877 26.4219 92.1119 26.371 92.3551C26.3236 92.5955 26.2973 92.8304 26.2946 93.0545C26.2852 93.5216 26.3683 93.8877 26.5421 94.15C26.7152 94.4123 26.9737 94.5434 27.3168 94.5434ZM29.3751 94.8822C29.308 94.8822 29.2631 94.8631 29.2369 94.833C29.2123 94.803 29.1981 94.7647 29.2003 94.7183L29.403 93.0545C29.2616 93.3359 29.1025 93.5927 28.9288 93.8276C28.7549 94.0598 28.5725 94.262 28.3808 94.4259C28.1879 94.5926 27.9884 94.721 27.7797 94.8139C27.572 94.904 27.3601 94.9505 27.1463 94.9505C26.919 94.9505 26.7207 94.9068 26.5492 94.8166C26.3809 94.7292 26.2388 94.6062 26.1273 94.4451C26.0132 94.2839 25.9301 94.0899 25.8744 93.8631C25.818 93.6337 25.794 93.3796 25.8 93.0954C25.8034 92.8304 25.8372 92.5573 25.8985 92.2786C25.9579 91.9999 26.0432 91.7322 26.1525 91.4699C26.2606 91.2104 26.3901 90.9645 26.5421 90.735C26.6962 90.5055 26.8682 90.3061 27.06 90.134C27.2512 89.9619 27.4627 89.8252 27.6879 89.7269C27.9141 89.6258 28.155 89.5766 28.4107 89.5766C28.6938 89.5766 28.9527 89.6367 29.1894 89.7624C29.4244 89.8854 29.6162 90.0739 29.7669 90.3225L30.2073 87.238H30.6897L29.6162 94.8822H29.3751ZM33.0579 87.8528C33.0562 87.9183 33.042 87.9757 33.0174 88.0303C32.9928 88.0822 32.9578 88.1314 32.9148 88.1751C32.8721 88.2161 32.824 88.2489 32.7715 88.2735C32.7142 88.2981 32.6579 88.309 32.6021 88.309C32.5431 88.309 32.488 88.2981 32.4355 88.2735C32.3842 88.2489 32.3378 88.2161 32.2983 88.1751C32.2584 88.1314 32.2274 88.0822 32.2033 88.0303C32.1787 87.9757 32.1689 87.9183 32.1689 87.8528C32.171 87.7899 32.1847 87.7325 32.2094 87.6752C32.2355 87.6205 32.2694 87.5686 32.3103 87.5249C32.3513 87.4812 32.3983 87.4484 32.4497 87.4238C32.5038 87.3992 32.5606 87.3856 32.6207 87.3856C32.6754 87.3856 32.729 87.3992 32.7847 87.4238C32.8377 87.4484 32.8864 87.4812 32.9273 87.5222C32.9688 87.5659 33.0005 87.6151 33.0234 87.6724C33.0481 87.7298 33.0579 87.7899 33.0579 87.8528ZM32.641 89.6559L31.9116 94.8822H31.4225L32.1541 89.6559H32.641ZM36.6996 89.9782C36.5018 89.9782 36.3008 90.0356 36.0964 90.1476C35.8937 90.2569 35.6975 90.4126 35.5091 90.6148C35.3183 90.8197 35.1374 91.0628 34.9703 91.3497C34.7992 91.6338 34.6484 91.9507 34.5151 92.3032L34.3047 93.8058C34.455 94.0817 34.6409 94.2757 34.8616 94.3877C35.084 94.4997 35.3162 94.5543 35.5576 94.5543C35.7789 94.5543 35.9849 94.5106 36.1767 94.4232C36.3702 94.333 36.545 94.2101 36.7029 94.0571C36.8609 93.9014 37.0056 93.7238 37.1286 93.5189C37.2525 93.314 37.358 93.0982 37.4439 92.8687C37.5313 92.6419 37.5973 92.4097 37.646 92.1666C37.6951 91.9289 37.7197 91.6939 37.7257 91.4699C37.7351 90.9973 37.6503 90.6339 37.4766 90.3717C37.3018 90.1121 37.0427 89.9782 36.6996 89.9782ZM33.413 96.729L34.4025 89.6395H34.6266C34.7507 89.6395 34.8107 89.7023 34.8074 89.828L34.6097 91.4727C34.7522 91.1913 34.9101 90.929 35.0834 90.6968C35.2577 90.4645 35.4407 90.2651 35.6352 90.0985C35.8293 89.9318 36.0303 89.8034 36.2384 89.7132C36.4456 89.6204 36.6586 89.5766 36.8718 89.5766C37.0991 89.5766 37.2963 89.6204 37.4674 89.7078C37.6372 89.7952 37.7799 89.9181 37.8913 90.0793C38.0039 90.2378 38.0886 90.4318 38.1433 90.6585C38.1995 90.8853 38.2252 91.1393 38.2192 91.4207C38.2142 91.6885 38.1814 91.9644 38.1213 92.2431C38.0585 92.519 37.9744 92.7895 37.8667 93.0517C37.7596 93.3113 37.6285 93.5572 37.4755 93.7894C37.3215 94.0189 37.1504 94.221 36.957 94.3932C36.7663 94.5653 36.5559 94.6991 36.3281 94.8002C36.0991 94.9013 35.8609 94.9505 35.6074 94.9505C35.3237 94.9505 35.0643 94.8849 34.8266 94.762C34.5888 94.6336 34.3965 94.4505 34.2517 94.2046L33.895 96.729H33.413ZM40.0939 89.6559L39.6398 92.9807C39.6174 93.1446 39.6021 93.2976 39.6009 93.4369C39.5955 93.7948 39.6567 94.0653 39.7878 94.2538C39.9185 94.4396 40.1311 94.5352 40.4217 94.5352C40.6146 94.5352 40.8096 94.486 41.0063 94.3877C41.2046 94.2893 41.3975 94.1473 41.5861 93.9642C41.7746 93.7812 41.9544 93.5599 42.1238 93.3031C42.2932 93.0463 42.444 92.7567 42.5761 92.4343L42.9625 89.6559H43.4558L42.7307 94.8822H42.4996C42.434 94.8822 42.3866 94.8631 42.356 94.8303C42.3281 94.7948 42.3139 94.7456 42.3139 94.6855L42.4979 93.1993C42.3505 93.4752 42.1866 93.7238 42.0106 93.9424C41.8331 94.1582 41.6472 94.3412 41.4539 94.4888C41.2604 94.639 41.0604 94.751 40.8577 94.8303C40.6517 94.9095 40.449 94.9505 40.2463 94.9505C39.8577 94.9505 39.5682 94.8193 39.3781 94.5625C39.1895 94.3057 39.0984 93.9396 39.1065 93.4615L39.1119 93.3605C39.113 93.3249 39.1202 93.2621 39.1288 93.1719L39.1754 92.8031L39.2623 92.1556L39.3971 91.1421L39.6009 89.6559H40.0939ZM44.7847 94.0025L44.789 93.926L44.801 93.7839C44.8082 93.7211 44.8191 93.6391 44.8334 93.5408L44.8847 93.1583L45.2934 90.1913H44.6066C44.5355 90.1913 44.5011 90.1586 44.5032 90.0903L44.535 89.8772L45.3606 89.8116L45.7386 87.9429C45.748 87.9101 45.7627 87.8828 45.789 87.8582C45.8136 87.8336 45.8436 87.8227 45.878 87.8227H46.1201L45.8366 89.8198H47.35L47.3008 90.1913H45.789L45.3737 93.1392L45.3245 93.4916L45.2934 93.7129L45.278 93.8413L45.2754 93.9041C45.271 94.1309 45.3218 94.2948 45.4267 94.3986C45.5305 94.4997 45.6672 94.5489 45.8366 94.5489C45.9513 94.5489 46.0539 94.5325 46.1419 94.497C46.2348 94.4587 46.3119 94.4177 46.3796 94.374C46.4474 94.3303 46.502 94.2893 46.5441 94.2511C46.5873 94.2183 46.6195 94.1992 46.6403 94.1992C46.6971 94.221 46.708 94.2347 46.7168 94.2511L46.8091 94.4724C46.6659 94.6199 46.4944 94.7401 46.2933 94.8303C46.0923 94.9204 45.8906 94.9641 45.6916 94.9641C45.4038 94.9641 45.1808 94.8849 45.0212 94.7292C44.8601 94.5707 44.7824 94.3303 44.7847 94.0025ZM49.1138 94.5352C49.3132 94.5352 49.5099 94.4778 49.7077 94.3658C49.9051 94.2538 50.0903 94.0954 50.2694 93.8905C50.4497 93.6856 50.6191 93.4397 50.7808 93.1501C50.9399 92.8605 51.0863 92.5409 51.2136 92.1939L51.5152 90.0657C51.3087 89.9946 51.0863 89.9591 50.8459 89.9591C50.6093 89.9591 50.3815 90.0001 50.1602 90.0793C49.9389 90.1558 49.7291 90.2651 49.5319 90.4072C49.3356 90.5465 49.1526 90.7132 48.9859 90.9044C48.8199 91.0984 48.6755 91.3087 48.5537 91.5382C48.4307 91.7677 48.333 92.0108 48.2641 92.2649C48.1936 92.519 48.1581 92.7813 48.1521 93.0463C48.1451 93.5162 48.2177 93.8823 48.3718 94.1445C48.5264 94.4041 48.7734 94.5352 49.1138 94.5352ZM51.3283 94.8822H51.0863C51.0207 94.8822 50.9743 94.8631 50.9476 94.833C50.9229 94.803 50.9098 94.7647 50.9126 94.7183L51.1147 93.0736C50.9771 93.355 50.8252 93.6091 50.6629 93.8385C50.499 94.068 50.3251 94.2647 50.1427 94.4287C49.9569 94.5926 49.7652 94.721 49.5646 94.8139C49.363 94.904 49.1575 94.9505 48.9444 94.9505C48.7215 94.9505 48.5302 94.9068 48.3679 94.8193C48.2051 94.7346 48.0686 94.6117 47.9614 94.456C47.8543 94.2975 47.7751 94.1063 47.7232 93.8823C47.6697 93.6582 47.6478 93.4069 47.6522 93.1255C47.6576 92.8222 47.7014 92.5245 47.7844 92.2294C47.8669 91.9398 47.9817 91.6611 48.1276 91.3989C48.2739 91.1366 48.4478 90.8935 48.6477 90.6722C48.8466 90.4536 49.0673 90.2624 49.304 90.1012C49.546 89.9427 49.8006 89.8143 50.0716 89.7214C50.3443 89.634 50.6219 89.5876 50.9098 89.5876C51.1202 89.5876 51.3157 89.604 51.4971 89.6422C51.6774 89.6805 51.8573 89.7433 52.0332 89.8334L51.3283 94.8822ZM56.1186 94.4341C55.9503 94.568 55.7843 94.6718 55.6252 94.751C55.463 94.8275 55.3018 94.8794 55.1362 94.9068C54.97 94.9341 54.7963 94.9505 54.6106 94.9505C54.3101 94.9505 54.0478 94.8986 53.8277 94.7948C53.6058 94.6909 53.4249 94.5461 53.2806 94.3631C53.1381 94.1773 53.0303 93.956 52.9615 93.6992C52.8938 93.4451 52.8621 93.1665 52.8675 92.8632C52.8719 92.5873 52.9059 92.3141 52.9687 92.0436C53.0303 91.7704 53.12 91.5136 53.2309 91.2677C53.3456 91.0219 53.4806 90.7978 53.6391 90.5902C53.7965 90.3826 53.9724 90.205 54.168 90.0547C54.3631 89.9045 54.5739 89.7843 54.8023 89.6996C55.0291 89.6149 55.2701 89.5712 55.5247 89.5712C55.698 89.5712 55.852 89.5876 55.9902 89.6204C56.128 89.6559 56.2536 89.7023 56.3684 89.7651C56.4831 89.828 56.5863 89.9017 56.6792 89.9919C56.7721 90.0793 56.8574 90.1777 56.9383 90.2842L56.7864 90.4591C56.754 90.4973 56.7181 90.5164 56.676 90.5164C56.6405 90.5164 56.5978 90.4891 56.5481 90.4318C56.4983 90.3771 56.4318 90.317 56.3464 90.2514C56.2607 90.1886 56.1526 90.1258 56.0159 90.0711C55.8798 90.0138 55.71 89.9864 55.5028 89.9864C55.2105 89.9864 54.9335 90.0657 54.6767 90.2214C54.4199 90.3799 54.1953 90.5902 54.004 90.8579C53.8117 91.123 53.6598 91.4289 53.5462 91.7786C53.4314 92.1256 53.3731 92.4889 53.3659 92.866C53.361 93.1064 53.3849 93.3304 53.4359 93.538C53.4855 93.7457 53.5669 93.9232 53.679 94.0735C53.7882 94.2238 53.9303 94.3385 54.1003 94.4232C54.2702 94.5079 54.4724 94.5489 54.7062 94.5489C54.892 94.5489 55.0586 94.5297 55.2062 94.4888C55.3543 94.4505 55.4859 94.3986 55.6023 94.3385C55.7155 94.2811 55.8153 94.2156 55.9039 94.1445C55.9913 94.0708 56.0678 94.0052 56.1361 93.9451L56.3099 93.7976C56.3564 93.7566 56.4 93.7375 56.4372 93.7375C56.4765 93.7375 56.5147 93.7539 56.5481 93.7894L56.6552 93.926C56.4656 94.1309 56.288 94.3003 56.1186 94.4341ZM59.2397 87.8528C59.2369 87.9183 59.2248 87.9757 59.2004 88.0303C59.1735 88.0822 59.1391 88.1314 59.0955 88.1751C59.0545 88.2161 59.0041 88.2489 58.9501 88.2735C58.8949 88.2981 58.8386 88.309 58.7851 88.309C58.7238 88.309 58.6687 88.2981 58.6162 88.2735C58.5649 88.2489 58.52 88.2161 58.4796 88.1751C58.4392 88.1314 58.4087 88.0822 58.384 88.0303C58.3621 87.9757 58.3496 87.9183 58.3496 87.8528C58.3534 87.7899 58.3654 87.7325 58.3901 87.6752C58.4173 87.6205 58.4501 87.5686 58.4911 87.5249C58.5326 87.4812 58.5785 87.4484 58.6332 87.4238C58.6839 87.3992 58.7413 87.3856 58.8014 87.3856C58.8573 87.3856 58.9118 87.3992 58.9654 87.4238C59.0201 87.4484 59.0675 87.4812 59.1075 87.5222C59.1495 87.5659 59.1823 87.6151 59.2058 87.6724C59.2293 87.7298 59.2397 87.7899 59.2397 87.8528ZM58.8238 89.6559L58.0928 94.8822H57.6038L58.3342 89.6559H58.8238ZM63.7857 87.3528L62.5432 88.6887C62.4896 88.7461 62.4241 88.7734 62.3482 88.7734H62.0591L62.9907 87.5222C63.035 87.4621 63.0814 87.4211 63.1235 87.3938C63.1649 87.3665 63.2284 87.3528 63.3098 87.3528H63.7857ZM61.6498 94.5543C61.9542 94.5543 62.2328 94.4751 62.4869 94.3167C62.7393 94.1582 62.9602 93.9451 63.1405 93.6801C63.3234 93.4178 63.4676 93.1146 63.5704 92.7731C63.6726 92.4316 63.7284 92.0819 63.7338 91.7185C63.7442 91.1585 63.6267 90.7268 63.3841 90.4208C63.1405 90.1176 62.7994 89.9646 62.3574 89.9646C62.1536 89.9646 61.9613 90.0001 61.7848 90.0739C61.6045 90.1449 61.4379 90.246 61.2837 90.3744C61.1318 90.5055 60.9925 90.6585 60.8684 90.8334C60.7471 91.0109 60.6401 91.2049 60.5533 91.4153C60.4668 91.6256 60.4008 91.8469 60.3521 92.0819C60.304 92.3168 60.28 92.5573 60.2745 92.8031C60.2641 93.3577 60.3805 93.7894 60.621 94.0954C60.863 94.4041 61.2057 94.5543 61.6498 94.5543ZM61.6018 94.9505C61.3209 94.9505 61.0668 94.9013 60.8395 94.803C60.6112 94.7019 60.4188 94.5625 60.2587 94.3768C60.1002 94.191 59.9763 93.967 59.8926 93.702C59.8074 93.4369 59.7697 93.1392 59.7751 92.8031C59.7828 92.3769 59.8533 91.9699 59.9861 91.5819C60.1194 91.1913 60.3025 90.8443 60.5373 90.5492C60.7723 90.2487 61.0483 90.0138 61.3668 89.8362C61.6864 89.6586 62.0344 89.5712 62.4116 89.5712C62.6928 89.5712 62.9459 89.6204 63.1715 89.7214C63.4005 89.8198 63.5945 89.9619 63.753 90.1476C63.9141 90.3307 64.0343 90.5547 64.1185 90.8197C64.2037 91.0874 64.2441 91.3852 64.2381 91.7158C64.23 92.1365 64.1589 92.5436 64.0228 92.9315C63.8895 93.3222 63.7054 93.6664 63.4732 93.9642C63.2393 94.2647 62.9639 94.5024 62.6438 94.6827C62.3285 94.8603 61.9799 94.9505 61.6018 94.9505ZM65.0469 94.8822L65.7713 89.6395H65.9965C66.1178 89.6395 66.1751 89.7023 66.1723 89.828L65.9937 91.3388C66.1424 91.0656 66.3046 90.817 66.4827 90.5984C66.6592 90.3799 66.8444 90.1941 67.0422 90.0411C67.2362 89.8881 67.4357 89.7733 67.6401 89.6941C67.8444 89.6149 68.052 89.5766 68.258 89.5766C68.6459 89.5766 68.9355 89.7051 69.1263 89.9591C69.3201 90.2159 69.4104 90.582 69.4021 91.0574L69.3966 91.1667C69.394 91.2049 69.3885 91.2705 69.3775 91.3579L69.3338 91.7267L69.2464 92.3742L69.1098 93.3932L68.9082 94.8822H68.4137L68.8689 91.5382C68.8918 91.377 68.905 91.2213 68.9082 91.0792C68.9136 90.7241 68.8503 90.4563 68.7202 90.2706C68.5886 90.0848 68.3788 89.9919 68.0881 89.9919C67.8909 89.9919 67.6925 90.0411 67.4902 90.1422C67.2898 90.2405 67.092 90.3826 66.9029 90.5656C66.7117 90.7514 66.5319 90.9727 66.3637 91.235C66.192 91.4972 66.0429 91.7896 65.9106 92.1147L65.5391 94.8822H65.0469ZM73.6503 90.1859L73.0111 94.7702L72.768 95.9804C72.7516 96.0569 72.7215 96.1116 72.6778 96.1444C72.6287 96.1771 72.574 96.1935 72.5084 96.1935H72.3226L73.1668 90.1913L72.5057 90.1476C72.4292 90.1422 72.3909 90.1039 72.3937 90.0329L72.4183 89.8198H73.216L73.3116 89.1559C73.3525 88.8581 73.4264 88.5959 73.5302 88.3718C73.6368 88.1451 73.7678 87.9566 73.9209 87.8063C74.0765 87.656 74.2514 87.5413 74.4454 87.4675C74.6394 87.3938 74.847 87.3555 75.0683 87.3555C75.164 87.3555 75.2623 87.3637 75.3606 87.3829C75.459 87.402 75.5464 87.4293 75.6201 87.4648L75.5656 87.7162C75.5601 87.7571 75.5355 87.7735 75.4836 87.7735C75.4481 87.7735 75.3934 87.7681 75.3251 87.7544C75.254 87.7407 75.1721 87.7325 75.082 87.7325C74.9235 87.7325 74.7733 87.7599 74.6312 87.8118C74.4891 87.8637 74.3606 87.9484 74.2487 88.0631C74.1367 88.1751 74.0384 88.3226 73.9564 88.5057C73.8744 88.686 73.8143 88.91 73.7787 89.1723L73.6832 89.8198H75.164L75.1038 90.1859H73.6503ZM77.2293 94.5543C77.5325 94.5543 77.8112 94.4751 78.0625 94.3167C78.3167 94.1582 78.5352 93.9451 78.7183 93.6801C78.9012 93.4178 79.0461 93.1146 79.1471 92.7731C79.2509 92.4316 79.3056 92.0819 79.3111 91.7185C79.322 91.1585 79.2073 90.7268 78.9614 90.4208C78.7183 90.1176 78.3767 89.9646 77.9341 89.9646C77.732 89.9646 77.5408 90.0001 77.3605 90.0739C77.1828 90.1449 77.0162 90.246 76.8632 90.3744C76.7102 90.5055 76.5709 90.6585 76.4452 90.8334C76.3223 91.0109 76.2185 91.2049 76.1311 91.4153C76.0437 91.6256 75.9809 91.8469 75.9288 92.0819C75.8824 92.3168 75.8551 92.5573 75.8524 92.8031C75.8414 93.3577 75.9589 93.7894 76.1993 94.0954C76.4398 94.4041 76.784 94.5543 77.2293 94.5543ZM77.1802 94.9505C76.8987 94.9505 76.6447 94.9013 76.418 94.803C76.1884 94.7019 75.9972 94.5625 75.8359 94.3768C75.6776 94.191 75.5546 93.967 75.4699 93.702C75.3852 93.4369 75.3469 93.1392 75.3524 92.8031C75.3606 92.3769 75.4317 91.9699 75.5628 91.5819C75.6966 91.1913 75.8797 90.8443 76.1147 90.5492C76.3496 90.2487 76.6282 90.0138 76.9452 89.8362C77.2648 89.6586 77.6118 89.5712 77.9888 89.5712C78.2702 89.5712 78.5243 89.6204 78.751 89.7214C78.9777 89.8198 79.1717 89.9619 79.3302 90.1476C79.4914 90.3307 79.6143 90.5547 79.6963 90.8197C79.7809 91.0874 79.8219 91.3852 79.8138 91.7158C79.8083 92.1365 79.7373 92.5436 79.6006 92.9315C79.4668 93.3222 79.2838 93.6664 79.0516 93.9642C78.8166 94.2647 78.5406 94.5024 78.2238 94.6827C77.9042 94.8603 77.5571 94.9505 77.1802 94.9505ZM80.6252 94.8822L81.3491 89.6395H81.576C81.6988 89.6395 81.7589 89.7023 81.7563 89.828L81.576 91.3825C81.8245 90.8142 82.1032 90.3717 82.4147 90.0629C82.7289 89.7515 83.0566 89.5985 83.4036 89.5985C83.5457 89.5985 83.696 89.6286 83.8434 89.6887L83.7451 90.1558C83.5839 90.0957 83.4364 90.0657 83.2944 90.0657C82.9201 90.0657 82.5813 90.2487 82.2754 90.6203C81.9693 90.9891 81.7016 91.5218 81.4748 92.2185L81.1114 94.8822H80.6252ZM85.2587 94.5352C85.458 94.5352 85.6548 94.4778 85.8515 94.3658C86.0482 94.2538 86.2367 94.0954 86.4142 93.8905C86.5945 93.6856 86.7639 93.4397 86.9252 93.1501C87.0863 92.8605 87.2311 92.5409 87.3595 92.1939L87.6601 90.0657C87.4552 89.9946 87.2311 89.9591 86.9907 89.9591C86.7558 89.9591 86.5263 90.0001 86.305 90.0793C86.0837 90.1558 85.8733 90.2651 85.6766 90.4072C85.48 90.5465 85.2997 90.7132 85.1329 90.9044C84.9663 91.0984 84.8216 91.3087 84.6958 91.5382C84.5729 91.7677 84.4773 92.0108 84.4089 92.2649C84.338 92.519 84.3025 92.7813 84.297 93.0463C84.2888 93.5162 84.3625 93.8823 84.5183 94.1445C84.6712 94.4041 84.9199 94.5352 85.2587 94.5352ZM87.4742 94.8822H87.2311C87.1655 94.8822 87.1191 94.8631 87.0946 94.833C87.0672 94.803 87.0563 94.7647 87.0563 94.7183L87.2585 93.0736C87.1219 93.355 86.9716 93.6091 86.8077 93.8385C86.6438 94.068 86.4717 94.2647 86.2858 94.4287C86.1029 94.5926 85.9116 94.721 85.7094 94.8139C85.5072 94.904 85.3023 94.9505 85.0893 94.9505C84.868 94.9505 84.674 94.9068 84.5129 94.8193C84.3489 94.7346 84.2151 94.6117 84.1057 94.456C83.9992 94.2975 83.9199 94.1063 83.868 93.8823C83.8161 93.6582 83.7915 93.4069 83.797 93.1255C83.8024 92.8222 83.8462 92.5245 83.9282 92.2294C84.0101 91.9398 84.1248 91.6611 84.2724 91.3989C84.4172 91.1366 84.592 90.8935 84.7915 90.6722C84.9936 90.4536 85.2122 90.2624 85.4499 90.1012C85.6903 89.9427 85.9444 89.8143 86.2175 89.7214C86.4881 89.634 86.7667 89.5876 87.0536 89.5876C87.264 89.5876 87.4606 89.604 87.6409 89.6422C87.8239 89.6805 88.0016 89.7433 88.1792 89.8334L87.4742 94.8822Z" fill="#052457"/>
<path d="M106.503 72.7368C106.41 73.2531 106.208 73.4935 105.691 73.4935H102.946C102.432 73.4935 102.186 73.2531 102.279 72.7368L104.973 55.8415C105.068 55.3258 105.303 55.0859 105.817 55.0859H108.565C109.079 55.0859 109.289 55.3258 109.196 55.8415L106.503 72.7368ZM109.789 52.408C109.696 52.9565 109.494 53.197 108.981 53.197H106.131C105.615 53.197 105.404 52.9565 105.462 52.408L105.833 50.1399C105.929 49.6263 106.167 49.3858 106.68 49.3858H109.497C110.046 49.3858 110.257 49.6263 110.161 50.1399L109.789 52.408ZM98.8149 72.7368C98.7193 73.2531 98.5171 73.4935 98.0035 73.4935H95.7004C95.1868 73.4935 94.9764 73.2531 95.0038 72.8406L95.1486 71.2615C94.2744 72.4281 92.6844 73.7312 90.1081 73.7312C87.1902 73.7312 85.4418 72.0155 85.3953 69.4064C85.2915 63.295 90.7336 62.3661 96.3971 62.1595L96.5829 61.0269C96.9298 59.138 96.1594 58.2784 93.8891 58.2784C92.1051 58.2784 90.6026 58.727 89.4414 59.138C88.9989 59.2756 88.6164 59.103 88.6437 58.6227L88.5399 56.6322C88.5317 56.2186 88.8022 55.9082 89.2092 55.7377C90.5751 55.1891 92.6624 54.776 94.6897 54.776C98.8121 54.776 100.76 56.323 100.812 59.3439C100.82 59.8254 100.796 60.374 100.703 60.9241L98.8149 72.7368ZM95.9982 64.8386C91.7773 65.0806 89.4578 65.8696 89.507 68.8567C89.5261 69.9201 90.1927 70.6441 91.5313 70.6441C93.9356 70.6441 95.3481 68.9251 95.6895 66.7963L95.9982 64.8386ZM79.945 73.4935C79.3604 73.4935 79.079 73.2176 78.9041 72.8733L75.0629 65.3887L73.921 72.7368C73.8253 73.2531 73.6232 73.4935 73.074 73.4935H70.3612C69.8476 73.4935 69.6017 73.2531 69.6618 72.7368L73.2844 50.0382C73.3773 49.5214 73.6149 49.317 74.1314 49.317H76.8441C77.3578 49.317 77.6364 49.5214 77.5435 50.0382L75.776 61.0269L81.0734 55.5995C81.3437 55.2925 81.6498 55.0859 82.2317 55.0859H85.6658C86.2859 55.0859 86.3624 55.6367 85.8898 56.0819L78.5627 63.3266L83.5348 72.5674C83.748 73.0126 83.5513 73.4935 82.9993 73.4935H79.945ZM69.0525 57.4895C69.0252 57.9015 68.7908 58.2463 68.5564 58.52L59.8572 69.819H66.4518C66.9653 69.819 67.2095 70.0239 67.1162 70.5402L66.7424 72.7368C66.6496 73.2531 66.4467 73.4935 65.9327 73.4935H54.9423C54.3937 73.4935 54.1829 73.2531 54.2779 72.7368L54.5221 71.0893C54.5839 70.7124 54.7855 70.3681 54.9876 70.1277L63.7875 58.7954H57.4684C56.9531 58.7954 56.7427 58.5544 56.8017 58.0408L57.176 55.8415C57.2362 55.3258 57.5066 55.0859 58.0213 55.0859H68.6673C69.2165 55.0859 69.4268 55.3258 69.334 55.8415L69.0525 57.4895ZM51.3579 72.7368C51.263 73.2531 51.0618 73.4935 50.5471 73.4935H47.7999C47.284 73.4935 47.0392 73.2531 47.1343 72.7368L49.827 55.8415C49.9204 55.3258 50.1554 55.0859 50.6723 55.0859H53.4196C53.9337 55.0859 54.1446 55.3258 54.0506 55.8415L51.3579 72.7368ZM54.6424 52.408C54.5495 52.9565 54.349 53.197 53.8348 53.197H50.9836C50.4673 53.197 50.257 52.9565 50.316 52.408L50.6903 50.1399C50.7832 49.6263 51.0186 49.3858 51.5345 49.3858H54.3512C54.8992 49.3858 55.1096 49.6263 55.0162 50.1399L54.6424 52.408ZM28.2262 73.5263C27.642 73.5263 27.3972 73.2858 27.4912 72.7013L31.0801 50.1399C31.1739 49.5891 31.4106 49.3486 31.9931 49.3486H38.9652C43.6007 49.3486 46.4103 50.9294 46.4699 54.3619C46.5163 57.0086 45.3274 59.6516 42.5298 60.7493C44.1177 61.2318 45.3137 62.7769 45.3558 65.2505C45.4503 70.674 41.6889 73.5263 36.0223 73.5263H28.2262ZM36.0232 69.7124C38.8755 69.7124 40.9458 68.4093 40.8917 65.2838C40.8622 63.6015 39.7853 62.8803 37.209 62.8803H33.5017L32.3843 69.7124H36.0232ZM37.5248 59.3089C40.1011 59.3089 41.9331 58.072 41.8851 55.2553C41.8577 53.7106 40.8157 53.1265 38.5149 53.1265H35.0475L34.0563 59.3089H37.5248ZM120.876 64.8205C116.658 65.061 114.335 65.851 114.387 68.8387C114.406 69.9037 115.07 70.6221 116.412 70.6221C118.816 70.6221 120.226 68.9065 120.567 66.776L120.876 64.8205ZM123.692 72.7176C123.6 73.2339 123.397 73.4744 122.884 73.4744H120.581C120.067 73.4744 119.857 73.2339 119.884 72.8214L120.026 71.2423C119.155 72.4116 117.562 73.7148 114.988 73.7148C112.068 73.7148 110.322 71.9991 110.276 69.3873C110.169 63.2759 115.614 62.3497 121.277 62.1431L121.463 61.0089C121.807 59.1205 121.037 58.2626 118.769 58.2626C116.985 58.2626 115.483 58.7084 114.322 59.1205C113.876 59.2565 113.497 59.0867 113.521 58.6041L113.42 56.6136C113.412 56.2017 113.68 55.8907 114.089 55.7197C115.456 55.1695 117.543 54.7574 119.57 54.7574C123.69 54.7574 125.64 56.3038 125.692 59.3249C125.7 59.8062 125.676 60.358 125.58 60.9066L123.692 72.7176Z" fill="#041E49"/>
</svg>
