<svg width="134" height="134" viewBox="0 0 134 134" fill="none" xmlns="http://www.w3.org/2000/svg">
<g clip-path="url(#clip0_1_1490)">
<mask id="mask0_1_1490" style="mask-type:luminance" maskUnits="userSpaceOnUse" x="6" y="37" width="122" height="66">
<path d="M6.01111 102.513H127.971V37.4405H6.01111V102.513Z" fill="white"/>
</mask>
<g mask="url(#mask0_1_1490)">
<path d="M125.896 74.6285C125.798 75.1686 125.588 75.4205 125.05 75.4205H122.66C122.126 75.4205 121.904 75.1686 121.938 74.7362L122.087 73.0809C121.181 74.3008 119.529 75.6724 116.849 75.6724C113.816 75.6724 112 73.8699 111.958 71.1328C111.845 64.7271 117.501 63.7546 123.381 63.5376L123.572 62.3496C123.937 60.3712 123.132 59.4699 120.782 59.4699C118.923 59.4699 117.363 59.9388 116.154 60.3712C115.697 60.5138 115.299 60.3348 115.328 59.825L115.218 57.7373C115.215 57.3049 115.488 56.9832 115.918 56.8011C117.334 56.2261 119.506 55.7952 121.607 55.7952C125.89 55.7952 127.914 57.4126 127.968 60.5866C127.979 61.0919 127.95 61.6654 127.85 62.2404L125.896 74.6285ZM122.966 66.3475C118.585 66.5994 116.169 67.4263 116.225 70.5624C116.246 71.673 116.934 72.4316 118.326 72.4316C120.824 72.4316 122.294 70.6352 122.648 68.3973L122.966 66.3475Z" fill="#041E49"/>
<path d="M23.7256 55.7063C24.9822 54.4272 26.5183 52.7689 26.9978 52.0862C27.3646 51.628 27.563 51.0969 27.4292 50.6008C27.3916 50.1593 27.1587 49.8392 26.7964 49.6571C26.3756 49.4447 25.86 49.5418 25.2918 49.6101C24.7823 49.7011 24.2953 49.7314 23.9812 49.5661C23.2522 49.1837 23.1635 48.4873 23.4401 47.9897C23.7692 47.3843 24.4381 46.8836 25.1295 46.3146C25.9382 45.6653 26.7303 45.0038 27.1647 44.1632C27.6547 43.2013 27.1587 42.8114 26.8175 42.6278C26.5634 42.5019 26.2553 42.4776 25.9487 42.467C25.7202 42.4154 25.4617 42.4184 25.3159 42.3426C24.9146 42.1377 24.8695 41.7463 25.137 41.2486C25.2287 41.0802 25.4196 40.8329 25.6556 40.5189C25.9036 40.1608 26.1606 39.7906 26.332 39.4538C26.5604 38.9986 26.5138 37.9108 25.8044 37.533C25.0814 37.1612 23.9857 37.9472 23.0703 38.6011C22.2872 39.1063 21.6529 39.5478 21.2651 39.3369C20.9299 39.1518 20.9074 38.8636 20.8457 38.6269C20.7961 38.3887 20.7961 38.1808 20.5557 38.0519C19.9785 37.7514 19.0601 38.4539 18.3326 39.6465C17.8832 40.3793 17.6923 40.8951 17.4563 41.3867C17.2759 41.7827 17.0204 42.1908 16.7288 42.6445C16.0915 43.6686 15.7969 43.9129 15.3024 43.611C14.8079 43.3151 14.5464 42.8736 14.2999 42.5246C14.0744 42.25 13.8504 41.9799 13.6535 41.8586C13.1154 41.5354 12.3098 41.7205 11.7131 42.558C10.2927 44.5547 10.201 46.8608 10.1784 48.4615C10.1288 49.2611 10.1288 49.8983 9.92741 50.1714C9.7275 50.4476 9.34722 50.44 8.89931 50.1001C8.752 49.9878 8.53706 49.7542 8.31762 49.516C8.15528 49.3188 7.97942 49.0381 7.77951 48.8954C7.53151 48.7012 6.67776 48.3857 6.31552 48.8332C5.74135 49.5312 6.09607 52.5337 6.44929 53.9205C7.11215 56.4785 8.19587 58.4236 8.88277 59.6374C9.50504 60.6403 9.84925 61.2153 9.62529 61.5354C9.37277 61.8647 8.994 61.6947 8.64378 61.4884C8.18234 61.1789 7.69083 60.9194 7.285 61.4535C6.53798 62.4124 8.63627 65.4878 11.1178 67.3327C12.3008 68.2021 13.619 68.9759 14.9372 69.5919C16.2523 70.2064 17.4984 70.7783 18.6317 71.3807C11.6815 54.4151 21.3899 44.0418 21.0862 43.8264C21.435 43.9007 11.9686 55.4256 20.7931 72.024C21.6484 73.5093 23.2732 75.1252 23.6805 75.5439C23.6851 75.5394 23.6851 75.5364 23.6926 75.5288C23.162 74.7034 20.703 69.9879 23.8985 63.2241C24.5628 61.7751 25.2798 60.4901 25.0183 59.8073C24.6981 58.9577 23.8699 59.1928 23.0102 59.469C22.4631 59.6875 21.8859 59.8149 21.5507 59.6374C21.3252 59.5266 21.1659 59.2915 21.1238 59.1215C21.0622 58.5905 21.6258 57.97 22.0151 57.5269C22.2286 57.2811 22.905 56.5665 23.7256 55.7063Z" fill="#041E49"/>
</g>
<mask id="mask1_1_1490" style="mask-type:luminance" maskUnits="userSpaceOnUse" x="-827" y="-516" width="2323" height="646">
<path d="M-826.482 -515.768H1495.77V129.351H-826.482V-515.768Z" fill="white"/>
</mask>
<g mask="url(#mask1_1_1490)">
<path d="M22.3409 94.3516L26.0668 79.643H27.7681L26.4036 85.0726H26.5478C26.7182 84.881 26.9532 84.6369 27.2528 84.34C27.5529 84.0384 27.9438 83.7702 28.4255 83.5356C28.9076 83.2962 29.5091 83.1765 30.23 83.1765C31.1624 83.1765 31.9232 83.4087 32.5125 83.8732C33.1066 84.3376 33.4941 84.9959 33.6749 85.8482C33.8606 86.7004 33.8071 87.7059 33.5144 88.8646C33.2209 90.0328 32.7655 91.0455 32.1481 91.9025C31.536 92.7548 30.8155 93.4155 29.9867 93.8847C29.1631 94.3492 28.2899 94.5814 27.3672 94.5814C26.6559 94.5814 26.1158 94.4641 25.7468 94.2295C25.3831 93.9901 25.123 93.7196 24.9666 93.4179C24.8153 93.1115 24.7003 92.8577 24.6216 92.6566H24.4198L23.9845 94.3516H22.3409ZM25.4142 88.8359C25.2074 89.669 25.1461 90.4039 25.2303 91.0407C25.3149 91.6727 25.5482 92.1683 25.9304 92.5274C26.313 92.8817 26.8455 93.0588 27.528 93.0588C28.2392 93.0588 28.8802 92.8721 29.4508 92.4986C30.0219 92.1204 30.508 91.6129 30.9092 90.9761C31.3109 90.3345 31.613 89.6211 31.8156 88.8359C32.0078 88.0602 32.0636 87.3612 31.983 86.7388C31.9076 86.1115 31.6766 85.616 31.29 85.2521C30.9087 84.8834 30.3576 84.6991 29.6367 84.6991C28.9446 84.6991 28.3167 84.8739 27.753 85.2234C27.1945 85.5681 26.7152 86.0517 26.3152 86.6741C25.9205 87.2918 25.6201 88.0123 25.4142 88.8359ZM34.7185 94.3516L37.5201 83.3202H39.2214L36.4197 94.3516H34.7185ZM39.0516 81.4529C38.72 81.4529 38.4438 81.3404 38.223 81.1153C38.0071 80.8903 37.9128 80.6198 37.9401 80.3038C37.9675 79.9878 38.1087 79.7173 38.3637 79.4922C38.6235 79.2672 38.9192 79.1547 39.2508 79.1547C39.5824 79.1547 39.8562 79.2672 40.0722 79.4922C40.293 79.7173 40.3897 79.9878 40.3623 80.3038C40.3349 80.6198 40.1913 80.8903 39.9315 81.1153C39.6765 81.3404 39.3832 81.4529 39.0516 81.4529ZM39.2186 94.3516L39.5613 93.0588L47.871 85.0151L47.9098 84.9002H41.8256L42.222 83.3202H50.4978L50.1501 84.6704L42.0183 92.6566L41.9795 92.7715H48.2945L47.898 94.3516H39.2186ZM53.1161 90.3297L53.6151 88.2326H53.9611L60.0675 83.3202H62.1725L55.6952 88.5199H55.551L53.1161 90.3297ZM50.5184 94.3516L54.2443 79.643H55.9456L52.2197 94.3516H50.5184ZM57.5542 94.3516L54.6247 88.8933L56.1109 87.7155L59.7168 94.3516H57.5542ZM64.7676 94.6101C64.066 94.6101 63.4622 94.4784 62.9564 94.2151C62.451 93.947 62.0927 93.5616 61.8816 93.0588C61.6709 92.5513 61.6543 91.9384 61.8319 91.2203C61.9972 90.5882 62.2555 90.0759 62.6067 89.6833C62.9584 89.2859 63.3698 88.9747 63.8411 88.7497C64.3175 88.5199 64.8225 88.3499 65.3559 88.2398C65.8945 88.1249 66.4284 88.0363 66.9576 87.974C67.6475 87.8879 68.2084 87.8208 68.6403 87.7729C69.0722 87.7251 69.401 87.6461 69.6268 87.5359C69.8526 87.4258 70.0012 87.2367 70.0725 86.9686L70.0775 86.9111C70.2538 86.2073 70.2076 85.6591 69.9389 85.2665C69.6705 84.8691 69.1471 84.6704 68.3686 84.6704C67.5612 84.6704 66.8706 84.8475 66.2968 85.2018C65.723 85.5561 65.289 85.9344 64.9946 86.3366L63.5449 85.762C63.9971 85.0917 64.5133 84.5698 65.0936 84.1964C65.6742 83.8181 66.2714 83.5548 66.885 83.4064C67.499 83.2531 68.0847 83.1765 68.6422 83.1765C68.9978 83.1765 69.3954 83.2196 69.8349 83.3058C70.2748 83.3872 70.6782 83.5572 71.045 83.8157C71.4167 84.0743 71.6784 84.4645 71.8302 84.9864C71.9868 85.5083 71.9551 86.2073 71.735 87.0835L69.8939 94.3516H68.1926L68.5816 92.8577H68.4951C68.3206 93.0971 68.0629 93.3533 67.722 93.6262C67.386 93.8991 66.9694 94.1313 66.4722 94.3228C65.9798 94.5143 65.4116 94.6101 64.7676 94.6101ZM65.3898 93.0875C66.0626 93.0875 66.6628 92.9559 67.1902 92.6925C67.7225 92.4292 68.1604 92.0893 68.5041 91.6727C68.8526 91.2562 69.0852 90.8181 69.2019 90.3584L69.5959 88.8071C69.5019 88.8933 69.3245 88.9723 69.0636 89.0441C68.803 89.1112 68.5095 89.171 68.1829 89.2237C67.8616 89.2716 67.5479 89.3147 67.2418 89.353C66.9409 89.3865 66.6981 89.4152 66.5134 89.4391C66.0567 89.4966 65.6185 89.59 65.1988 89.7192C64.7843 89.8437 64.4267 90.0328 64.126 90.2866C63.8304 90.5356 63.6304 90.8755 63.5257 91.3064C63.3738 91.8954 63.4769 92.3406 63.8353 92.6423C64.194 92.9391 64.7122 93.0875 65.3898 93.0875ZM72.9991 94.3516L75.8007 83.3202H77.502L74.7004 94.3516H72.9991ZM77.3323 81.4529C77.0007 81.4529 76.7245 81.3404 76.5037 81.1153C76.2877 80.8903 76.1934 80.6198 76.2208 80.3038C76.2482 79.9878 76.3894 79.7173 76.6444 79.4922C76.9042 79.2672 77.1999 79.1547 77.5315 79.1547C77.8631 79.1547 78.1369 79.2672 78.3529 79.4922C78.5736 79.7173 78.6703 79.9878 78.643 80.3038C78.6156 80.6198 78.472 80.8903 78.2122 81.1153C77.9572 81.3404 77.6639 81.4529 77.3323 81.4529ZM78.0471 94.3516L81.773 79.643H83.4743L82.1097 85.0726H82.2539C82.4243 84.881 82.6593 84.6369 82.959 84.34C83.2591 84.0384 83.65 83.7702 84.1317 83.5356C84.6138 83.2962 85.2153 83.1765 85.9362 83.1765C86.8685 83.1765 87.6293 83.4087 88.2187 83.8732C88.8128 84.3376 89.2003 84.9959 89.3811 85.8482C89.5667 86.7004 89.5132 87.7059 89.2206 88.8646C88.9271 90.0328 88.4716 91.0455 87.8543 91.9025C87.2422 92.7548 86.5217 93.4155 85.6928 93.8847C84.8692 94.3492 83.9961 94.5814 83.0733 94.5814C82.3621 94.5814 81.8219 94.4641 81.453 94.2295C81.0893 93.9901 80.8292 93.7196 80.6727 93.4179C80.5215 93.1115 80.4065 92.8577 80.3278 92.6566H80.1259L79.6907 94.3516H78.0471ZM81.1203 88.8359C80.9136 89.669 80.8523 90.4039 80.9364 91.0407C81.021 91.6727 81.2544 92.1683 81.6366 92.5274C82.0192 92.8817 82.5517 93.0588 83.2341 93.0588C83.9454 93.0588 84.5864 92.8721 85.157 92.4986C85.728 92.1204 86.2142 91.6129 86.6154 90.9761C87.017 90.3345 87.3191 89.6211 87.5218 88.8359C87.714 88.0602 87.7697 87.3612 87.6891 86.7388C87.6137 86.1115 87.3828 85.616 86.9962 85.2521C86.6148 84.8834 86.0637 84.6991 85.3428 84.6991C84.6508 84.6991 84.0229 84.8739 83.4591 85.2234C82.9006 85.5681 82.4214 86.0517 82.0214 86.6741C81.6266 87.2918 81.3263 88.0123 81.1203 88.8359ZM98.5434 89.8413L100.204 83.3202H101.906L99.104 94.3516H97.4028L97.8818 92.4843H97.7665C97.3719 93.0445 96.8476 93.5209 96.1936 93.9135C95.54 94.3013 94.7951 94.4952 93.9589 94.4952C93.2669 94.4952 92.6888 94.3444 92.2248 94.0427C91.7659 93.7363 91.4597 93.2767 91.3062 92.6638C91.1579 92.0462 91.2013 91.2681 91.4364 90.3297L93.2263 83.3202H94.9275L93.1765 90.2148C92.977 91.0192 93.044 91.6607 93.3773 92.1395C93.7107 92.6183 94.2306 92.8577 94.9371 92.8577C95.36 92.8577 95.8163 92.75 96.3059 92.5345C96.8004 92.3191 97.2519 91.9887 97.6606 91.5434C98.074 91.0982 98.3683 90.5308 98.5434 89.8413ZM112.247 85.7907L110.595 86.2217C110.56 85.9631 110.48 85.7141 110.357 85.4747C110.239 85.2306 110.04 85.0319 109.76 84.8786C109.485 84.7206 109.098 84.6416 108.598 84.6416C107.92 84.6416 107.318 84.7972 106.791 85.1085C106.265 85.4149 105.945 85.8051 105.832 86.2791C105.724 86.6957 105.791 87.0284 106.034 87.2774C106.277 87.5264 106.701 87.7299 107.307 87.8879L108.859 88.29C109.789 88.5342 110.435 88.9005 110.796 89.3889C111.163 89.8725 111.248 90.5021 111.051 91.2777C110.89 91.9097 110.565 92.4747 110.075 92.9726C109.585 93.4706 108.979 93.8632 108.257 94.1505C107.535 94.4377 106.746 94.5814 105.891 94.5814C104.752 94.5814 103.875 94.3372 103.258 93.8488C102.643 93.3557 102.354 92.6423 102.391 91.7086L104.128 91.3064C104.12 91.8954 104.293 92.3406 104.646 92.6423C105.005 92.9391 105.53 93.0875 106.222 93.0875C107.015 93.0875 107.691 92.92 108.248 92.5848C108.806 92.2449 109.142 91.8379 109.255 91.3639C109.361 90.9761 109.312 90.6529 109.109 90.3943C108.91 90.1358 108.542 89.9419 108.006 89.8126L106.284 89.3817C105.325 89.1375 104.67 88.764 104.319 88.2613C103.974 87.7586 103.899 87.1266 104.095 86.3653C104.254 85.7429 104.571 85.1923 105.045 84.7135C105.524 84.2347 106.104 83.8588 106.786 83.5859C107.473 83.313 108.206 83.1765 108.985 83.1765C110.08 83.1765 110.879 83.4159 111.381 83.8947C111.883 84.3687 112.171 85.0007 112.247 85.7907Z" fill="#041E49"/>
<path d="M100.049 74.6462C99.9515 75.1879 99.7441 75.4382 99.206 75.4382H96.8146C96.281 75.4382 96.0675 75.1879 96.0916 74.7555L96.2404 73.1002C95.3371 74.32 93.6837 75.6931 91.0067 75.6931C87.975 75.6931 86.1623 73.8922 86.1127 71.1566C86 64.7433 91.6545 63.7723 97.536 63.5553L97.7299 62.3689C98.0877 60.3889 97.2895 59.4892 94.9342 59.4892C93.0794 59.4892 91.5162 59.955 90.3123 60.3889C89.8523 60.533 89.4555 60.354 89.4826 59.8427L89.3744 57.7565C89.3653 57.3286 89.6449 57.0009 90.0718 56.8219C91.4877 56.2438 93.6581 55.8129 95.7639 55.8129C100.045 55.8129 102.074 57.4333 102.125 60.6043C102.134 61.1096 102.107 61.6846 102.012 62.2596L100.049 74.6462ZM97.1227 66.3652C92.7397 66.6171 90.3288 67.4455 90.3814 70.5801C90.404 71.6937 91.0924 72.4493 92.4827 72.4493C94.9808 72.4493 96.4478 70.6529 96.8041 68.418L97.1227 66.3652Z" fill="#041E49"/>
<path d="M108.037 74.6462C107.941 75.1879 107.731 75.4382 107.193 75.4382H104.341C103.808 75.4382 103.552 75.1879 103.653 74.6462L106.447 56.9327C106.543 56.388 106.788 56.1346 107.325 56.1346H110.179C110.713 56.1346 110.931 56.388 110.833 56.9327L108.037 74.6462ZM111.448 53.3308C111.352 53.9028 111.14 54.1546 110.611 54.1546H107.65C107.113 54.1546 106.898 53.9028 106.952 53.3308L107.34 50.9533C107.441 50.4101 107.686 50.1628 108.221 50.1628H111.147C111.717 50.1628 111.935 50.4101 111.842 50.9533L111.448 53.3308Z" fill="#041E49"/>
<path d="M26.7216 75.4717C26.1144 75.4717 25.8648 75.2244 25.9595 74.6084L29.6887 50.9503C29.7879 50.3753 30.0299 50.1234 30.6371 50.1234H37.8774C42.6903 50.1234 45.6137 51.7802 45.6709 55.3821C45.725 58.1495 44.4864 60.923 41.584 62.0792C43.2329 62.5844 44.4744 64.2033 44.5195 66.7932C44.6127 72.4828 40.7047 75.4717 34.8232 75.4717H26.7216ZM34.8232 71.4799C37.7842 71.4799 39.9366 70.1083 39.8765 66.8311C39.8525 65.0681 38.7297 64.311 36.0557 64.311H32.2003L31.0429 71.4799H34.8232ZM36.3819 60.565C39.0588 60.565 40.9632 59.2677 40.9091 56.3167C40.8851 54.6979 39.7983 54.0849 37.41 54.0849H33.8086L32.779 60.565H36.3819Z" fill="#041E49"/>
<path d="M50.7532 74.6462C50.6555 75.1879 50.4466 75.4382 49.907 75.4382H47.0586C46.522 75.4382 46.265 75.1879 46.3642 74.6462L49.1614 56.9327C49.2591 56.388 49.5041 56.1346 50.0407 56.1346H52.8951C53.4272 56.1346 53.6481 56.388 53.5519 56.9327L50.7532 74.6462ZM54.1637 53.3308C54.069 53.9028 53.8555 54.1546 53.322 54.1546H50.3654C49.8273 54.1546 49.6109 53.9028 49.6695 53.3308L50.0588 50.9533C50.155 50.4101 50.397 50.1628 50.9366 50.1628H53.8601C54.4327 50.1628 54.6522 50.4101 54.553 50.9533L54.1637 53.3308Z" fill="#041E49"/>
<path d="M69.1321 58.6577C69.1005 59.0916 68.863 59.4482 68.6135 59.7364L59.5801 71.586H66.4326C66.9647 71.586 67.2187 71.8044 67.1225 72.3446L66.7347 74.6462C66.637 75.1833 66.4281 75.4397 65.8915 75.4397H54.4741C53.9029 75.4397 53.688 75.1833 53.7842 74.6462L54.0412 72.915C54.1044 72.5251 54.3103 72.1595 54.5222 71.9106L63.6624 60.0277H57.0985C56.5619 60.0277 56.3424 59.7744 56.4101 59.2327L56.7949 56.9326C56.858 56.3879 57.1391 56.1346 57.6742 56.1346H68.7308C69.3019 56.1346 69.5199 56.3879 69.4222 56.9326L69.1321 58.6577Z" fill="#041E49"/>
<path d="M80.446 75.4392C79.8403 75.4392 79.5487 75.1525 79.3623 74.7944L75.3777 66.9412L74.1872 74.6472C74.094 75.1889 73.8806 75.4392 73.3094 75.4392H70.4927C69.9576 75.4392 69.7051 75.1889 69.7637 74.6472L73.5289 50.842C73.6266 50.3034 73.8716 50.0879 74.4037 50.0879H77.2219C77.7585 50.0879 78.0501 50.3034 77.9524 50.842L76.1187 62.3683L81.6214 56.6772C81.8995 56.3525 82.2182 56.1341 82.8209 56.1341H86.3922C87.037 56.1341 87.1167 56.7106 86.6237 57.1855L79.0091 64.7792L84.1767 74.4682C84.3976 74.937 84.1977 75.4392 83.6205 75.4392H80.446Z" fill="#041E49"/>
</g>
</g>
<defs>
<clipPath id="clip0_1_1490">
<rect width="133.983" height="133.983" rx="15.6858" fill="white"/>
</clipPath>
</defs>
</svg>
