<svg width="15" height="22" viewBox="0 0 15 22" fill="none" xmlns="http://www.w3.org/2000/svg">
<path d="M5.72074 18.8148C5.72074 20.3887 4.44005 21.6649 2.86109 21.6649C1.28076 21.6649 7.62939e-05 20.3887 7.62939e-05 18.8148C7.62939e-05 17.2401 1.28076 15.9636 2.86109 15.9636C4.44005 15.9636 5.72074 17.2401 5.72074 18.8148Z" fill="#D50032"/>
<path d="M14.852 18.8147C14.852 20.3887 13.5767 21.6649 12.0034 21.6649C10.4287 21.6649 9.15331 20.3887 9.15331 18.8147C9.15331 17.2398 10.4287 15.9636 12.0034 15.9636C13.5767 15.9636 14.852 17.2398 14.852 18.8147Z" fill="white"/>
<path d="M5.72074 10.8323C5.72074 12.4063 4.44005 13.683 2.86109 13.683C1.28076 13.683 7.62939e-05 12.4063 7.62939e-05 10.8323C7.62939e-05 9.25698 1.28076 7.98169 2.86109 7.98169C4.44005 7.98169 5.72074 9.25698 5.72074 10.8323Z" fill="#D50032"/>
<path d="M14.852 10.8319C14.852 12.4061 13.5767 13.683 12.0034 13.683C10.4287 13.683 9.15331 12.4061 9.15331 10.8319C9.15331 9.25776 10.4287 7.98169 12.0034 7.98169C13.5767 7.98169 14.852 9.25776 14.852 10.8319Z" fill="#D50032"/>
<path d="M5.72074 2.84997C5.72074 4.42495 4.44005 5.70129 2.86109 5.70129C1.28076 5.70129 7.62939e-05 4.42495 7.62939e-05 2.84997C7.62939e-05 1.27635 1.28076 9.53674e-07 2.86109 9.53674e-07C4.44005 9.53674e-07 5.72074 1.27635 5.72074 2.84997Z" fill="#D50032"/>
<path d="M14.852 2.85064C14.852 4.42502 13.5767 5.70129 12.0034 5.70129C10.4287 5.70129 9.15331 4.42502 9.15331 2.85064C9.15331 1.27626 10.4287 9.53674e-07 12.0034 9.53674e-07C13.5767 9.53674e-07 14.852 1.27626 14.852 2.85064Z" fill="white"/>
</svg>
