<svg width="15" height="22" viewBox="0 0 15 22" fill="none" xmlns="http://www.w3.org/2000/svg">
<path d="M5.72066 18.8147C5.72066 20.3887 4.43998 21.6649 2.86101 21.6649C1.28068 21.6649 0 20.3887 0 18.8147C0 17.24 1.28068 15.9636 2.86101 15.9636C4.43998 15.9636 5.72066 17.24 5.72066 18.8147Z" fill="#D50032"/>
<path d="M14.852 18.8146C14.852 20.3886 13.5766 21.6649 12.0033 21.6649C10.4286 21.6649 9.15323 20.3886 9.15323 18.8146C9.15323 17.2398 10.4286 15.9636 12.0033 15.9636C13.5766 15.9636 14.852 17.2398 14.852 18.8146Z" fill="white"/>
<path d="M5.72066 10.8323C5.72066 12.4063 4.43998 13.683 2.86101 13.683C1.28068 13.683 0 12.4063 0 10.8323C0 9.25698 1.28068 7.98169 2.86101 7.98169C4.43998 7.98169 5.72066 9.25698 5.72066 10.8323Z" fill="#D50032"/>
<path d="M14.852 10.8319C14.852 12.4061 13.5766 13.683 12.0033 13.683C10.4286 13.683 9.15323 12.4061 9.15323 10.8319C9.15323 9.25776 10.4286 7.98169 12.0033 7.98169C13.5766 7.98169 14.852 9.25776 14.852 10.8319Z" fill="white"/>
<path d="M5.72066 2.84997C5.72066 4.42495 4.43998 5.70129 2.86101 5.70129C1.28068 5.70129 0 4.42495 0 2.84997C0 1.27635 1.28068 9.53674e-07 2.86101 9.53674e-07C4.43998 9.53674e-07 5.72066 1.27635 5.72066 2.84997Z" fill="white"/>
<path d="M14.852 2.85064C14.852 4.42502 13.5766 5.70129 12.0033 5.70129C10.4286 5.70129 9.15323 4.42502 9.15323 2.85064C9.15323 1.27626 10.4286 9.53674e-07 12.0033 9.53674e-07C13.5766 9.53674e-07 14.852 1.27626 14.852 2.85064Z" fill="#D50032"/>
</svg>
