<svg width="15" height="22" viewBox="0 0 15 22" fill="none" xmlns="http://www.w3.org/2000/svg">
<path d="M5.72075 18.8148C5.72075 20.3887 4.44007 21.6649 2.8611 21.6649C1.28077 21.6649 9.15527e-05 20.3887 9.15527e-05 18.8148C9.15527e-05 17.2401 1.28077 15.9636 2.8611 15.9636C4.44007 15.9636 5.72075 17.2401 5.72075 18.8148Z" fill="#D50032"/>
<path d="M14.8518 18.8147C14.8518 20.3887 13.5765 21.6649 12.0032 21.6649C10.4285 21.6649 9.15311 20.3887 9.15311 18.8147C9.15311 17.2398 10.4285 15.9636 12.0032 15.9636C13.5765 15.9636 14.8518 17.2398 14.8518 18.8147Z" fill="white"/>
<path d="M5.72075 10.8323C5.72075 12.4063 4.44007 13.683 2.8611 13.683C1.28077 13.683 9.15527e-05 12.4063 9.15527e-05 10.8323C9.15527e-05 9.25698 1.28077 7.98169 2.8611 7.98169C4.44007 7.98169 5.72075 9.25698 5.72075 10.8323Z" fill="#D50032"/>
<path d="M14.8518 10.8319C14.8518 12.4061 13.5765 13.683 12.0032 13.683C10.4285 13.683 9.15311 12.4061 9.15311 10.8319C9.15311 9.25776 10.4285 7.98169 12.0032 7.98169C13.5765 7.98169 14.8518 9.25776 14.8518 10.8319Z" fill="#D50032"/>
<path d="M5.72075 2.84997C5.72075 4.42495 4.44007 5.70129 2.8611 5.70129C1.28077 5.70129 9.15527e-05 4.42495 9.15527e-05 2.84997C9.15527e-05 1.27635 1.28077 9.53674e-07 2.8611 9.53674e-07C4.44007 9.53674e-07 5.72075 1.27635 5.72075 2.84997Z" fill="white"/>
<path d="M14.8518 2.85064C14.8518 4.42502 13.5765 5.70129 12.0032 5.70129C10.4285 5.70129 9.15311 4.42502 9.15311 2.85064C9.15311 1.27626 10.4285 9.53674e-07 12.0032 9.53674e-07C13.5765 9.53674e-07 14.8518 1.27626 14.8518 2.85064Z" fill="#D50032"/>
</svg>
