<svg width="15" height="22" viewBox="0 0 15 22" fill="none" xmlns="http://www.w3.org/2000/svg">
<path d="M5.72066 18.8148C5.72066 20.3887 4.43998 21.6649 2.86101 21.6649C1.28068 21.6649 0 20.3887 0 18.8148C0 17.2401 1.28068 15.9636 2.86101 15.9636C4.43998 15.9636 5.72066 17.2401 5.72066 18.8148Z" fill="white"/>
<path d="M14.8517 18.8147C14.8517 20.3887 13.5764 21.6649 12.0031 21.6649C10.4284 21.6649 9.15302 20.3887 9.15302 18.8147C9.15302 17.2398 10.4284 15.9636 12.0031 15.9636C13.5764 15.9636 14.8517 17.2398 14.8517 18.8147Z" fill="white"/>
<path d="M5.72066 10.8323C5.72066 12.4063 4.43998 13.683 2.86101 13.683C1.28068 13.683 0 12.4063 0 10.8323C0 9.25698 1.28068 7.98169 2.86101 7.98169C4.43998 7.98169 5.72066 9.25698 5.72066 10.8323Z" fill="#D50032"/>
<path d="M14.8517 10.8319C14.8517 12.4061 13.5764 13.683 12.0031 13.683C10.4284 13.683 9.15302 12.4061 9.15302 10.8319C9.15302 9.25776 10.4284 7.98169 12.0031 7.98169C13.5764 7.98169 14.8517 9.25776 14.8517 10.8319Z" fill="white"/>
<path d="M5.72066 2.84997C5.72066 4.42495 4.43998 5.70129 2.86101 5.70129C1.28068 5.70129 0 4.42495 0 2.84997C0 1.27635 1.28068 9.53674e-07 2.86101 9.53674e-07C4.43998 9.53674e-07 5.72066 1.27635 5.72066 2.84997Z" fill="#D50032"/>
<path d="M14.8517 2.85064C14.8517 4.42502 13.5764 5.70129 12.0031 5.70129C10.4284 5.70129 9.15302 4.42502 9.15302 2.85064C9.15302 1.27626 10.4284 9.53674e-07 12.0031 9.53674e-07C13.5764 9.53674e-07 14.8517 1.27626 14.8517 2.85064Z" fill="#D50032"/>
</svg>
