<svg width="15" height="22" viewBox="0 0 15 22" fill="none" xmlns="http://www.w3.org/2000/svg">
<path d="M5.72072 18.8148C5.72072 20.3887 4.44004 21.6649 2.86107 21.6649C1.28074 21.6649 6.10352e-05 20.3887 6.10352e-05 18.8148C6.10352e-05 17.2401 1.28074 15.9636 2.86107 15.9636C4.44004 15.9636 5.72072 17.2401 5.72072 18.8148Z" fill="white"/>
<path d="M14.8519 18.8147C14.8519 20.3887 13.5765 21.6649 12.0033 21.6649C10.4286 21.6649 9.15318 20.3887 9.15318 18.8147C9.15318 17.2398 10.4286 15.9636 12.0033 15.9636C13.5765 15.9636 14.8519 17.2398 14.8519 18.8147Z" fill="white"/>
<path d="M5.72072 10.8323C5.72072 12.4063 4.44004 13.683 2.86107 13.683C1.28074 13.683 6.10352e-05 12.4063 6.10352e-05 10.8323C6.10352e-05 9.25698 1.28074 7.98169 2.86107 7.98169C4.44004 7.98169 5.72072 9.25698 5.72072 10.8323Z" fill="white"/>
<path d="M14.8519 10.8319C14.8519 12.4061 13.5765 13.683 12.0033 13.683C10.4286 13.683 9.15318 12.4061 9.15318 10.8319C9.15318 9.25776 10.4286 7.98169 12.0033 7.98169C13.5765 7.98169 14.8519 9.25776 14.8519 10.8319Z" fill="white"/>
<path d="M5.72072 2.84997C5.72072 4.42495 4.44004 5.70129 2.86107 5.70129C1.28074 5.70129 6.10352e-05 4.42495 6.10352e-05 2.84997C6.10352e-05 1.27635 1.28074 9.53674e-07 2.86107 9.53674e-07C4.44004 9.53674e-07 5.72072 1.27635 5.72072 2.84997Z" fill="#D50032"/>
<path d="M14.8519 2.85064C14.8519 4.42502 13.5765 5.70129 12.0033 5.70129C10.4286 5.70129 9.15318 4.42502 9.15318 2.85064C9.15318 1.27626 10.4286 9.53674e-07 12.0033 9.53674e-07C13.5765 9.53674e-07 14.8519 1.27626 14.8519 2.85064Z" fill="white"/>
</svg>
