<svg width="24" height="25" viewBox="0 0 24 25" fill="none" xmlns="http://www.w3.org/2000/svg">
<path d="M12.0156 9.39062C10.0156 9.39062 8.42188 11.0156 8.42188 12.9844C8.42188 14.9844 10.0156 16.5781 12.0156 16.5781C13.9844 16.5781 15.6094 14.9844 15.6094 12.9844C15.6094 11.0156 13.9844 9.39062 12.0156 9.39062ZM12.0156 15.3281C10.7344 15.3281 9.67188 14.2969 9.67188 12.9844C9.67188 11.7031 10.7031 10.6719 12.0156 10.6719C13.2968 10.6719 14.3281 11.7031 14.3281 12.9844C14.3281 14.2969 13.2968 15.3281 12.0156 15.3281ZM16.5781 9.26562C16.5781 8.79687 16.2031 8.42188 15.7344 8.42188C15.2656 8.42188 14.8906 8.79687 14.8906 9.26562C14.8906 9.73437 15.2656 10.1094 15.7344 10.1094C16.2031 10.1094 16.5781 9.73437 16.5781 9.26562ZM18.9531 10.1094C18.8906 8.98437 18.6406 7.98438 17.8281 7.17188C17.0156 6.35938 16.0156 6.10938 14.8906 6.04688C13.7344 5.98438 10.2656 5.98438 9.10938 6.04688C7.98438 6.10938 7.01562 6.35938 6.17188 7.17188C5.35938 7.98438 5.10938 8.98437 5.04688 10.1094C4.98438 11.2656 4.98438 14.7344 5.04688 15.8906C5.10938 17.0156 5.35938 17.9844 6.17188 18.8281C7.01562 19.6406 7.98438 19.8906 9.10938 19.9531C10.2656 20.0156 13.7344 20.0156 14.8906 19.9531C16.0156 19.8906 17.0156 19.6406 17.8281 18.8281C18.6406 17.9844 18.8906 17.0156 18.9531 15.8906C19.0156 14.7344 19.0156 11.2656 18.9531 10.1094ZM17.4531 17.1094C17.2344 17.7344 16.7344 18.2031 16.1406 18.4531C15.2031 18.8281 13.0156 18.7344 12.0156 18.7344C10.9844 18.7344 8.79688 18.8281 7.89062 18.4531C7.26562 18.2031 6.79688 17.7344 6.54688 17.1094C6.17188 16.2031 6.26562 14.0156 6.26562 12.9844C6.26562 11.9844 6.17188 9.79687 6.54688 8.85937C6.79688 8.26562 7.26562 7.79688 7.89062 7.54688C8.79688 7.17188 10.9844 7.26562 12.0156 7.26562C13.0156 7.26562 15.2031 7.17188 16.1406 7.54688C16.7344 7.76562 17.2031 8.26562 17.4531 8.85937C17.8281 9.79687 17.7344 11.9844 17.7344 12.9844C17.7344 14.0156 17.8281 16.2031 17.4531 17.1094Z" fill="white"/>
</svg>
