<svg width="24" height="25" viewBox="0 0 24 25" fill="none" xmlns="http://www.w3.org/2000/svg">
<path d="M8.52837 19.0137V8.9801H5.40757V19.0137H8.52837ZM6.95119 7.63783C7.9579 7.63783 8.76327 6.7989 8.76327 5.79219C8.76327 4.81904 7.9579 4.01367 6.95119 4.01367C5.97804 4.01367 5.17267 4.81904 5.17267 5.79219C5.17267 6.7989 5.97804 7.63783 6.95119 7.63783ZM20.1727 19.0137H20.2062V13.5103C20.2062 10.8258 19.6022 8.74521 16.4478 8.74521C14.9378 8.74521 13.931 9.58413 13.4948 10.356H13.4613V8.9801H10.4747V19.0137H13.5955V14.0472C13.5955 12.7385 13.8304 11.4969 15.4411 11.4969C17.0518 11.4969 17.0854 12.9734 17.0854 14.1479V19.0137H20.1727Z" fill="white"/>
</svg>
