<svg width="24" height="25" viewBox="0 0 24 25" fill="none" xmlns="http://www.w3.org/2000/svg">
<path d="M23.5051 8.22395C23.2865 7.34895 22.5937 6.65625 21.7551 6.4375C20.1875 6 13.9896 6 13.9896 6C13.9896 6 7.7552 6 6.18749 6.4375C5.34896 6.65625 4.65625 7.34895 4.4375 8.22395C4 9.7552 4 13.0364 4 13.0364C4 13.0364 4 16.2813 4.4375 17.8489C4.65625 18.7239 5.34896 19.3802 6.18749 19.5989C7.7552 20 13.9896 20 13.9896 20C13.9896 20 20.1875 20 21.7551 19.5989C22.5937 19.3802 23.2865 18.7239 23.5051 17.8489C23.9426 16.2813 23.9426 13.0364 23.9426 13.0364C23.9426 13.0364 23.9426 9.7552 23.5051 8.22395ZM11.9479 15.9896V10.0833L17.125 13.0364L11.9479 15.9896Z" fill="white"/>
</svg>
